<svg xmlns="http://www.w3.org/2000/svg" width="130.321" height="100" viewBox="0 0 130.321 100">
  <g id="medlab_logo" data-name="medlab logo" transform="translate(0 0.001)">
    <g id="Group_129" data-name="Group 129" transform="translate(35.885 -0.001)">
      <path id="Path_487" data-name="Path 487" d="M150.844,17.22a.956.956,0,0,1,.9-.529.985.985,0,0,1,.873.582l3.333,7.354h8.836a.942.942,0,0,1,.82.45l.847,1.3.82-1.27a.986.986,0,0,1,.846-.45h1.693L173.726,13.7a1,1,0,0,1,1.005-.661.958.958,0,0,1,.9.794l3.174,15.9L182.3,16.586a.992.992,0,0,1,1.9-.053l3.28,10.317,2.01-3.174a1.011,1.011,0,0,1,.846-.476h7.354a22.677,22.677,0,0,0-2.381-14.126C192.323,3.517,187.35.052,182.324,0h-.132c-3.6,0-8.73,1.667-13.491,9.232C163.912,1.586,158.7-.027,155.1,0c-5.053.053-10.026,3.518-12.989,9.074a22.5,22.5,0,0,0-2.09,15.555h7.037Z" transform="translate(-139.44 0.001)" fill="#3aa1a2"/>
      <path id="Path_488" data-name="Path 488" d="M191.379,78.984a.984.984,0,0,1-1.772-.238l-2.91-9.127-3.73,13.968a.992.992,0,0,1-.952.741h-.026a1.042,1.042,0,0,1-.952-.794L177.728,67l-2.91,8.227a.969.969,0,0,1-.926.661h-1.852l-1.323,2.09a.973.973,0,0,1-1.64,0l-1.4-2.116h-8.941a.993.993,0,0,1-.9-.582L155.084,69.2l-3.148,6.111a.983.983,0,0,1-.873.529H144a21.5,21.5,0,0,0,2.3,4.709c4.735,7.3,13.042,13.782,25.4,19.84l.423.212.423-.212c12.354-6.031,20.634-12.513,25.4-19.84a20.917,20.917,0,0,0,2.725-6.137h-6.375Z" transform="translate(-142.781 -49.276)" fill="#92c7a3"/>
      <path id="Path_489" data-name="Path 489" d="M171.323,123.31l.423.212.159-.079c-.37-.212-.767-.423-1.138-.661a41.784,41.784,0,0,1-9.312-8.756,59.939,59.939,0,0,1-8.015-11.534c-.317-.635-.635-1.3-.926-1.984-.344-.794-.635-1.587-.926-2.407l-.053.106a.983.983,0,0,1-.873.529H143.6a21.5,21.5,0,0,0,2.3,4.709C150.663,110.771,158.97,117.252,171.323,123.31Z" transform="translate(-142.486 -72.149)" fill="#fff" opacity="0.3"/>
      <path id="Path_490" data-name="Path 490" d="M139.949,24.628h7.037l.741-1.455a20.784,20.784,0,0,1-.45-6.878c.688-6.322,4.709-12.275,9.788-15.978a1.12,1.12,0,0,1,.185-.132A11.488,11.488,0,0,0,155.186,0c-5.106.053-10.132,3.571-13.121,9.153a23.046,23.046,0,0,0-2.645,9.55v.026c0,.212-.026.423-.026.661A22.34,22.34,0,0,0,139.949,24.628Z" transform="translate(-139.391 0)" fill="#fff" opacity="0.3"/>
    </g>
    <g id="Group_130" data-name="Group 130" transform="translate(0 55.085)">
      <path id="Path_491" data-name="Path 491" d="M0,254.276q.119-15.158.132-21.692v-2.592c-.053-9.312.159-14.126.608-14.417a8.108,8.108,0,0,1,.794-.556c.132-.053.317-.106.582-.185a1.434,1.434,0,0,1,.873.053c.317.132.661.291,1.085.5a6.787,6.787,0,0,1,1.455,1.058c.556.5,1.164,1.085,1.825,1.8l4.629,5.185c4.338-5.688,6.984-8.7,7.989-9.021a3.077,3.077,0,0,1,2.751.5,3.5,3.5,0,0,1,1.455,3.227l-.741,38.649a1.9,1.9,0,0,1-.026.344,7.207,7.207,0,0,1-.185.741,1.6,1.6,0,0,1-.4.741,2.863,2.863,0,0,1-.661.423.785.785,0,0,1-.9-.212,5.05,5.05,0,0,1-2.09-2.619,7.414,7.414,0,0,1-.556-3.677c.053-.794.079-4.021.132-9.709s.053-11.216,0-16.56v-7.989c-3.042,3.545-4.815,5.661-5.264,6.375a5.4,5.4,0,0,1-.873,1.111A1.159,1.159,0,0,1,11.56,226c-.45-.079-.9-.5-1.349-1.243a16.9,16.9,0,0,0-1.9-2.434,27.437,27.437,0,0,0-2.275-2.2l-.926-.873c0,.423.026.979.053,1.693.053.714.106,2.2.159,4.391s.053,4.206-.026,6.031c-.079,1.772-.106,4.788-.053,9.047s.079,7.672.106,10.238a51.911,51.911,0,0,1-.159,5.635c-.37,1.349-1.323,1.8-2.857,1.3A3.1,3.1,0,0,1,.714,256,4.937,4.937,0,0,1,0,254.276Z" transform="translate(0 -214.192)" fill="#225b6e"/>
      <path id="Path_492" data-name="Path 492" d="M115.029,215.4a3.616,3.616,0,0,1,.5.053q8.65.119,9.841.238c.608.079.926.4.926.926.053.661-.423,1.005-1.429,1.058a.9.9,0,0,1-.37.053c-3.1-.079-5.476-.132-7.169-.185l.238,27.089h3.651c.423,0,.794.026,1.164.053.37.053.688.079.952.132a2.16,2.16,0,0,1,.661.212c.159.106.238.212.238.344a2.642,2.642,0,0,1,0,.926,1,1,0,0,1-.4.556,2.26,2.26,0,0,1-1.032.317l-5.449.132c-.159,4.285-.238,6.957-.238,8.042,0,.873.159,1.27.5,1.243l.185-.053c.317,0,.741,0,1.217-.026s1.323-.053,2.54-.106a14.43,14.43,0,0,1,2.249,0c.82.079,1.27.291,1.323.608s-.212.635-.847.926a2.7,2.7,0,0,1-.608.212c-.238.053-.556.106-.926.159s-.714.079-1.032.106-.741.026-1.27.026H116.14c-1.534,0-2.487-.4-2.857-1.164a13.415,13.415,0,0,1-.688-4.577,1.169,1.169,0,0,1-.053-.4v-.767q-.317-5.555.132-28.147a26.678,26.678,0,0,1,.582-6.4C113.6,215.929,114.182,215.4,115.029,215.4Z" transform="translate(-83.173 -215.024)" fill="#225b6e"/>
      <path id="Path_493" data-name="Path 493" d="M181.2,214.517a2.83,2.83,0,0,1,1.3.873,3.9,3.9,0,0,1,1.878-.053,15.443,15.443,0,0,1,2.487.608,8.806,8.806,0,0,1,2.8,1.772,16.738,16.738,0,0,1,2.91,3.36,15.588,15.588,0,0,1,2.381,6.984,31.261,31.261,0,0,1-.106,8.465,55.424,55.424,0,0,1-1.719,7.857,23.144,23.144,0,0,1-2.407,5.688,18.437,18.437,0,0,1-2.751,3.465A17.061,17.061,0,0,1,183.311,257a3.082,3.082,0,0,1-2.222.556c-1.243,0-1.958-.37-2.2-1.085a25.11,25.11,0,0,1-.4-5.529c0-.608-.026-2.46-.106-5.555-.053-3.1-.106-6.111-.159-9.1-.053-2.963-.079-6.084-.106-9.338s-.026-5.926-.026-8.042a21.014,21.014,0,0,1,.132-3.413,1.775,1.775,0,0,1,.794-1.217A3.815,3.815,0,0,1,181.2,214.517Zm1.984,1.9.132.741c.079,1.719.159,3.915.238,6.534s.132,5.37.185,8.227.079,5.529.106,8.015.053,4.894.053,7.3c.026,2.381.026,3.942.026,4.629,0,1.349-.026,2.407-.053,3.148A16.731,16.731,0,0,0,188.5,249.6a32.319,32.319,0,0,0,3.1-7.539,52.737,52.737,0,0,0,1.428-8.254,25.678,25.678,0,0,0-.37-7.672,13.221,13.221,0,0,0-1.455-4.1,9.707,9.707,0,0,0-4.444-4.418,11.921,11.921,0,0,0-2.09-.873C184.105,216.607,183.629,216.528,183.179,216.422Z" transform="translate(-131.795 -214.141)" fill="#225b6e"/>
      <path id="Path_494" data-name="Path 494" d="M259.127,217.5c-.37-1.455-.238-2.434.37-2.963a2.721,2.721,0,0,1,1.614-.556,3.59,3.59,0,0,1,2.249.794A4.492,4.492,0,0,1,265,217.5c.291,1.243.45,4.762.476,10.608s0,11.4-.106,16.666l-.185,7.857v.476a3.256,3.256,0,0,0,.053.529c.053.159.079.344.132.556a2.467,2.467,0,0,0,.185.529,1.129,1.129,0,0,0,.344.37.99.99,0,0,0,.423.185c.132.026,1.349-.026,3.6-.132s3.465-.026,3.624.212c.688.291,1.058.688,1.058,1.217s-.476.741-1.428.714l-7.857.132a8.025,8.025,0,0,0-.794.344,4.2,4.2,0,0,1-1.693.132,2.9,2.9,0,0,1-2.01-.952,6.1,6.1,0,0,1-.661-.952,7.021,7.021,0,0,1-.476-1.111c-.132-.4-.238-.741-.317-1.058a6.22,6.22,0,0,1-.159-1.111c-.026-.423-.053-.767-.053-.979a9.086,9.086,0,0,1-.026-.926v-.661q-.079-.357,0-8.968c.053-5.74.079-10.82.106-15.317C259.233,221.364,259.207,218.586,259.127,217.5Z" transform="translate(-191.59 -213.977)" fill="#225b6e"/>
      <path id="Path_495" data-name="Path 495" d="M326.764,249.342a71.366,71.366,0,0,1-2.487,8.042,2.769,2.769,0,0,1-2.857,1.217,2.975,2.975,0,0,1-2.592-1.64c-.238-.582-.159-1.772.238-3.624.423-1.825.873-3.518,1.349-5.053l.794-2.354q7.619-25.475,8.174-28.014c.238-1.085,1.164-1.746,2.725-2.037,1.561-.238,2.54.053,2.91.926a1.767,1.767,0,0,1,.053,1.243q6.944,35.078,7.169,39.337a.772.772,0,0,1-.053.238,2,2,0,0,1-.344.344,1.148,1.148,0,0,1-.767.159,1.522,1.522,0,0,1-1.3-.926,14.191,14.191,0,0,1-.873-3.465c-.053-.212-.106-.529-.185-.979s-.185-1.032-.291-1.693c-.106-.688-.212-1.349-.344-2.01A104.232,104.232,0,0,0,326.764,249.342Zm7.063-26.348q-3.889,15.079-6.666,24.972c5.264-.291,8.862-.423,10.767-.423Z" transform="translate(-235.922 -215.317)" fill="#225b6e"/>
      <path id="Path_496" data-name="Path 496" d="M426.85,217.43a2.065,2.065,0,0,1,1.3.608,14.332,14.332,0,0,1,2.01-.37,13,13,0,0,1,2.672.026,8.472,8.472,0,0,1,3.28,1.111,10.967,10.967,0,0,1,3.122,2.7,15.979,15.979,0,0,1,2.513,4.365,17.8,17.8,0,0,1,1.111,5.344,20.42,20.42,0,0,1-.476,5.661,16.141,16.141,0,0,1-2.407,5.476,18.1,18.1,0,0,1-4.576,4.629c-.132.079-.265.159-.423.238a7.55,7.55,0,0,1,2.54,1.138A13.675,13.675,0,0,1,440,250.523a7.848,7.848,0,0,1,1.587,2.751,5.31,5.31,0,0,1,.185,2.778,3.948,3.948,0,0,1-1.958,2.354,11.521,11.521,0,0,1-4.629,1.428,31.09,31.09,0,0,1-6.27.212,11.475,11.475,0,0,1-3.809-.846,6.582,6.582,0,0,1-1.984-1.3,2.4,2.4,0,0,1-.688-1.164l-.132-.556q.238-33.649.5-36.162a2.812,2.812,0,0,1,1.217-2.354A4.662,4.662,0,0,1,426.85,217.43Zm6.613,30.739.053-.053a17.887,17.887,0,0,1-5.264,1.984l-.132,8.915a8.552,8.552,0,0,0,3.624.238,17.171,17.171,0,0,0,3.783-.873,7.589,7.589,0,0,0,2.91-1.825,3.276,3.276,0,0,0,1.032-2.619,4.665,4.665,0,0,0-.767-2.09,6,6,0,0,0-1.508-1.64,18.489,18.489,0,0,0-1.693-1.111,7.437,7.437,0,0,0-1.455-.661ZM428.517,220.6c.079,3.7.026,12.169-.185,25.343a17.063,17.063,0,0,0,5.82-4.524,20.809,20.809,0,0,0,2.8-4.576,20.578,20.578,0,0,0,1.719-5.661,19.21,19.21,0,0,0,.132-5.476,6.683,6.683,0,0,0-2.143-4.18,7.014,7.014,0,0,0-4.894-1.64A8.094,8.094,0,0,0,428.517,220.6Z" transform="translate(-312.565 -216.445)" fill="#225b6e"/>
    </g>
  </g>
</svg>
