<svg xmlns="http://www.w3.org/2000/svg" xmlns:xlink="http://www.w3.org/1999/xlink" width="84.073" height="78.818" viewBox="0 0 84.073 78.818">
  <defs>
    <linearGradient id="linear-gradient" x1="0.5" y1="1" x2="0.5" gradientUnits="objectBoundingBox">
      <stop offset="0" stop-color="gray" stop-opacity="0.251"/>
      <stop offset="0.54" stop-color="gray" stop-opacity="0.122"/>
      <stop offset="1" stop-color="gray" stop-opacity="0.102"/>
    </linearGradient>
  </defs>
  <g id="Group_11270" data-name="Group 11270" transform="translate(-60.927 -265.682)">
    <path id="Path_150" data-name="Path 150" d="M267.81,317.87v56.248a1.91,1.91,0,0,0,1.851,1.964h76.09a1.91,1.91,0,0,0,1.851-1.964V317.87Z" transform="translate(-206.883 -40.29)" fill="#f4f2f2"/>
    <rect id="Rectangle_16" data-name="Rectangle 16" width="20.235" height="11.877" rx="5.939" transform="translate(67.625 282.615)" opacity="0.1"/>
    <rect id="Rectangle_17" data-name="Rectangle 17" width="20.235" height="11.877" rx="5.939" transform="translate(90.858 282.615)" opacity="0.1"/>
    <rect id="Rectangle_18" data-name="Rectangle 18" width="19.665" height="11.542" rx="5.771" transform="translate(67.909 282.782)" fill="#225b6e"/>
    <rect id="Rectangle_19" data-name="Rectangle 19" width="19.665" height="11.542" rx="5.771" transform="translate(133.737 294.325) rotate(180)" fill="#444053" opacity="0.1"/>
    <rect id="Rectangle_20" data-name="Rectangle 20" width="19.665" height="11.542" rx="5.771" transform="translate(110.806 294.325) rotate(180)" fill="#225b6e"/>
    <rect id="Rectangle_21" data-name="Rectangle 21" width="19.665" height="11.542" rx="5.771" transform="translate(67.909 299.455)" fill="#444053" opacity="0.1"/>
    <rect id="Rectangle_22" data-name="Rectangle 22" width="19.665" height="11.542" rx="5.771" transform="translate(133.737 310.997) rotate(180)" fill="#444053" opacity="0.1"/>
    <rect id="Rectangle_23" data-name="Rectangle 23" width="19.665" height="11.542" rx="5.771" transform="translate(110.806 310.997) rotate(180)" fill="#444053" opacity="0.1"/>
    <rect id="Rectangle_24" data-name="Rectangle 24" width="19.665" height="11.542" rx="5.771" transform="translate(67.909 316.128)" fill="#444053" opacity="0.1"/>
    <rect id="Rectangle_25" data-name="Rectangle 25" width="19.665" height="11.542" rx="5.771" transform="translate(133.737 327.672) rotate(180)" fill="#444053" opacity="0.1"/>
    <rect id="Rectangle_26" data-name="Rectangle 26" width="19.665" height="11.542" rx="5.771" transform="translate(110.806 327.672) rotate(180)" fill="#444053" opacity="0.1"/>
    <path id="Path_151" data-name="Path 151" d="M267.81,226.395v10.219H347.6V226.395a1.91,1.91,0,0,0-1.851-1.965h-76.09A1.91,1.91,0,0,0,267.81,226.395Zm19.747,3.023a1.57,1.57,0,1,1,1.478-1.568A1.525,1.525,0,0,1,287.557,229.418Zm40.3,0a1.57,1.57,0,1,1,1.478-1.568,1.617,1.617,0,0,1-.434,1.109,1.436,1.436,0,0,1-1.046.458Z" transform="translate(-206.883 41.252)" fill="#225b6e"/>
    <path id="Path_152" data-name="Path 152" d="M419.6,236.74a1.853,1.853,0,1,0,1.852,1.852,1.853,1.853,0,0,0-1.852-1.852Zm0,3.42a1.568,1.568,0,1,1,1.568-1.568A1.568,1.568,0,0,1,419.6,240.16Z" transform="translate(-338.817 30.509)" opacity="0.1"/>
    <path id="Path_153" data-name="Path 153" d="M755.3,236.74a1.853,1.853,0,1,0,1.853,1.853A1.853,1.853,0,0,0,755.3,236.74Zm0,3.42a1.568,1.568,0,1,1,1.568-1.568A1.568,1.568,0,0,1,755.3,240.16Z" transform="translate(-634.203 30.509)" opacity="0.1"/>
    <path id="Path_154" data-name="Path 154" d="M805.2,449.595a4.077,4.077,0,0,0-.945-.531.2.2,0,0,0-.083-.022,14.539,14.539,0,0,1-1.948-1.678c.127-.1.245-.2.369-.3a4.191,4.191,0,0,1-1.6-1.951,19.245,19.245,0,0,0-4.246-5.29c-.042-.162-.288-.127-.419-.232a.336.336,0,0,1-.093-.325c.02-.117.074-.225.1-.34a2.3,2.3,0,0,0-.022-.828,1.014,1.014,0,0,1,.166-.791c.059-.068.134-.12.191-.188a.718.718,0,0,0,.127-.572,2.025,2.025,0,0,0-.127-.579q.936-2.547,1.871-5.1a12.038,12.038,0,0,0,.922-3.672,4.389,4.389,0,0,0-.843-2.855c.112-.027.224-.055.335-.087a5.776,5.776,0,0,1-.826-3.46q-.015-.909-.062-1.82c.211.093.425.176.644.247l.2.062a7.023,7.023,0,0,0,1.01.216c.15.022.3.038.455.048h0q-.328-.823-.656-1.648a2.255,2.255,0,0,1-.2-.773h0v-.051a.446.446,0,0,1,.006-.092,1.014,1.014,0,0,1,.05-.214.965.965,0,0,1,.039-.1,1.791,1.791,0,0,1,.163-.286c.046-.07.1-.138.148-.206a2.815,2.815,0,0,0,.457-.74,1.4,1.4,0,0,0,.07-.421,2.086,2.086,0,0,0-.038-.433c-.018-.094-.041-.19-.066-.281h0c-.017-.057-.034-.115-.052-.171l-.015-.046c-.014-.043-.028-.085-.043-.127l-.015-.043c-.016-.046-.033-.09-.051-.136l-.01-.027c-.243-.625-.567-1.221-.764-1.864a4.922,4.922,0,0,1-.127-.521c-.009-.045-.015-.09-.023-.135s-.011-.076-.016-.115-.011-.089-.017-.134l-.011-.127c0-.041-.006-.082-.009-.127,0-.078-.008-.155-.009-.233v-.354c0-.059.009-.117.014-.174a.258.258,0,0,1,.009-.083q.013-.127.034-.255h0c.013-.075.027-.151.042-.228a3.036,3.036,0,0,0,.071-.637.631.631,0,0,0-.009-.127c-.009-.045-.01-.069-.017-.1a.256.256,0,0,1,0-.031.344.344,0,0,0-.016-.069.126.126,0,0,0-.01-.032c0-.01-.014-.045-.022-.066l-.01-.029c0-.01-.018-.046-.028-.067l-.009-.023c-.013-.028-.027-.055-.041-.081h0a1.868,1.868,0,0,0-.171-.265h0c-.419-.55-1.115-.969-1.5-1.575a3.506,3.506,0,0,1-.429-1.273c-.019-.1-.036-.2-.054-.3s-.033-.2-.051-.3c-.011-.061-.023-.127-.036-.183l-.008-.039c-.01-.048-.02-.1-.032-.146l-.008-.034c-.011-.051-.023-.1-.036-.153l-.008-.027c-.013-.053-.027-.107-.041-.16a.125.125,0,0,1,0-.019c-.015-.056-.032-.112-.048-.168v-.011c-.018-.059-.036-.116-.055-.173h0c-.019-.059-.039-.118-.061-.177h0c-.023-.06-.045-.12-.069-.178h0a4.709,4.709,0,0,0-.644-1.146,3.041,3.041,0,0,0-2.419-1.251,4.792,4.792,0,0,0-1.456.369l-1.226.452.343-.158a2.929,2.929,0,0,0-1.043.223,1.013,1.013,0,0,0-.6.829c-.006.21.076.419.05.628-.045.345-.362.579-.526.885a1.14,1.14,0,0,0-.127.6v.081a.1.1,0,0,0,0,.02v.041c-.509-.222-1.019-.452-1.528-.7a5.4,5.4,0,0,1-2.218-1.685c-.168-.255-.3-.53-.465-.782a6.2,6.2,0,0,0-.637-.764L782.53,398.9c-.12.225.035.492.156.716a3.073,3.073,0,0,1,.289.746.353.353,0,0,1-.008.261.51.51,0,0,1-.214.152.764.764,0,0,0-.322.875.968.968,0,0,0,.722.629,1.313,1.313,0,0,1,.322.079c.188.093.278.309.413.471a1.852,1.852,0,0,0,1.01.5c.578.667,1.179,1.307,1.757,1.974a12.652,12.652,0,0,0,2.911,2.72c.119.071.24.137.362.2a.2.2,0,0,1-.006.061.69.69,0,0,0,.055.446.7.7,0,0,0,.5.243l.863.154a2.95,2.95,0,0,1-.042.334c-.011.068-.025.134-.038.2h0l-.015.087v.013a.256.256,0,0,1-.009.07c-.009.024,0,.017,0,.024v.169a1.622,1.622,0,0,0,.48.877l.121.146a2.037,2.037,0,0,0-.393.825,2.8,2.8,0,0,0-.056.574,1,1,0,0,0-.255.4,1.819,1.819,0,0,0-.066.643v.255a2.139,2.139,0,0,0,.148.891c.011.023.024.043.036.065a12.373,12.373,0,0,1-.737,1.019,2.211,2.211,0,0,0,.2,2.531c.175.2.4.395.419.662a2.5,2.5,0,0,1-.036.362,2.706,2.706,0,0,0,.183.839.867.867,0,0,1-.07.7,1.019,1.019,0,0,0-.174.667,4.462,4.462,0,0,1-.109,1.086c-.012.157,0,.316-.014.472a2.663,2.663,0,0,1-.093.443.181.181,0,0,1-.013.048c-.314.139-.626.283-.927.45a.813.813,0,0,0-.382.351.9.9,0,0,0-.02.484l.271,1.887-.047-.02q.032.464.066.931a1.256,1.256,0,0,0,.178.674,1.753,1.753,0,0,1,.192.246c.107.216-.02.469-.115.69s-.127.536.08.656a1.694,1.694,0,0,0,.348.186,7.267,7.267,0,0,0,.216,3.241q.271,1.222.544,2.442a5.935,5.935,0,0,1,.12,1.049v.153a5.878,5.878,0,0,0,.255,1.429,16.74,16.74,0,0,1,.1,3.134,9.292,9.292,0,0,0,.3,1.476,45.49,45.49,0,0,1,1.375,7.34,1.845,1.845,0,0,0,.881.615c-.025.308.009.661,0,.84a1.449,1.449,0,0,1-.069.438,1.052,1.052,0,0,1-.666.567c-.089.031-.18.055-.271.076l.1-.087a2.274,2.274,0,0,0-1.7.3.671.671,0,0,0-.335.395.637.637,0,0,0,.117.457,2.085,2.085,0,0,0,1.178.837,6.179,6.179,0,0,0,1.452.2l.9.052a.247.247,0,0,0,.059.32.629.629,0,0,0,.33.12,4.2,4.2,0,0,0,1.109.017.434.434,0,0,0,.255-.092.164.164,0,0,0,0-.243.269.269,0,0,0,.245-.178.725.725,0,0,0,.033-.322,3.458,3.458,0,0,0-.279-1.4.355.355,0,0,0-.393-.173,15.28,15.28,0,0,1-.255-2.259,5.508,5.508,0,0,0,.655-.3,5.057,5.057,0,0,1-.446-3.466,10.51,10.51,0,0,0,.167-1.122,3.721,3.721,0,0,0-.488-2.223,7.956,7.956,0,0,1,1.986,1.8c.88,1.146,1.416,2.534,2.495,3.489q.213-.208.43-.413.341.578.646,1.18a4.489,4.489,0,0,1,.374.931,4.3,4.3,0,0,1,.034,1.5q-.044.4-.108.791a2.156,2.156,0,0,1-.078.331.23.23,0,0,0-.024-.1c-.068-.118-.255-.065-.356.017a1.574,1.574,0,0,0-.439.509.549.549,0,0,0-.079.325.48.48,0,0,0,.255.318,2.656,2.656,0,0,0,1.97-.327c.255-.183.394-.485.647-.663a3.748,3.748,0,0,0,.391-.247c.236-.215.255-.578.427-.851.285-.47.923-.591,1.173-1.089A1.388,1.388,0,0,0,805.2,449.595Z" transform="translate(-660.793 -111.001)" fill="url(#linear-gradient)"/>
    <path id="Path_155" data-name="Path 155" d="M861.062,804.914a1.42,1.42,0,0,1-.07.433,1.047,1.047,0,0,1-.665.559c-.283.1-.583.127-.871.213a.764.764,0,0,0-.34.176.617.617,0,0,0,.2.9,1.691,1.691,0,0,0,1.031.159,13.582,13.582,0,0,0,2.231-.317c.265-.062.574-.185.616-.453a.743.743,0,0,0-.02-.255,15.052,15.052,0,0,1-.287-2.767,5.754,5.754,0,0,0-1.615-.012C860.962,803.755,861.079,804.6,861.062,804.914Z" transform="translate(-727.632 -464.079)" fill="#a1616a"/>
    <path id="Path_156" data-name="Path 156" d="M925.063,780.22q.367.607.689,1.239a4.39,4.39,0,0,1,.374.918,4.218,4.218,0,0,1,.034,1.481q-.044.391-.109.781a.986.986,0,0,1-.327.69.754.754,0,0,0,.649.057,1.869,1.869,0,0,0,.572-.35,5.047,5.047,0,0,0,1.951-3.623.574.574,0,0,0-.06-.321.637.637,0,0,0-.191-.171,14.683,14.683,0,0,1-2.258-1.9.277.277,0,0,0-.166-.106.287.287,0,0,0-.148.042c-.419.21-1.119.509-1.294.987a.668.668,0,0,1,.283.271Z" transform="translate(-785.046 -442.629)" fill="#a1616a"/>
    <path id="Path_158" data-name="Path 158" d="M931.426,793.874a4.1,4.1,0,0,0-.945-.523.112.112,0,0,0-.171.043,9.694,9.694,0,0,0-1.392,2.683,4.666,4.666,0,0,1-.7,1.574c-.048.059-.127.118-.194.084-.1-.048-.037-.2-.09-.3-.066-.117-.247-.064-.355.017a1.527,1.527,0,0,0-.438.509.508.508,0,0,0-.079.32.471.471,0,0,0,.248.313,1.838,1.838,0,0,0,1.571-.128,1.8,1.8,0,0,0,.4-.2c.255-.18.393-.479.647-.653a3.73,3.73,0,0,0,.391-.245c.234-.213.255-.57.425-.84.285-.462.923-.582,1.173-1.074A1.384,1.384,0,0,0,931.426,793.874Z" transform="translate(-787.04 -455.202)"/>
    <path id="Path_159" data-name="Path 159" d="M848.044,593.409a3.972,3.972,0,0,1,1.377,3.338,11.771,11.771,0,0,1-.919,3.623q-.936,2.517-1.869,5.034a2.08,2.08,0,0,1,.127.573.7.7,0,0,1-.127.563c-.059.068-.127.12-.191.186a1,1,0,0,0-.166.781,2.261,2.261,0,0,1,.022.816c-.029.113-.083.22-.1.335a.332.332,0,0,0,.093.321c.127.1.382.069.419.229a19.034,19.034,0,0,1,4.24,5.221,4.108,4.108,0,0,0,1.6,1.924,27.922,27.922,0,0,0-2.156,1.9c-1.076-.942-1.612-2.314-2.491-3.438a7.893,7.893,0,0,0-1.984-1.774,3.628,3.628,0,0,1,.488,2.193,10.163,10.163,0,0,1-.167,1.107,4.9,4.9,0,0,0,.446,3.42,3.743,3.743,0,0,1-2.179.5,1.854,1.854,0,0,1-1.187-.677,44.769,44.769,0,0,0-1.374-7.242,8.908,8.908,0,0,1-.3-1.466,16.194,16.194,0,0,0-.1-3.092,5.762,5.762,0,0,1-.255-1.408v-.152a5.763,5.763,0,0,0-.12-1.034l-.542-2.409a7.066,7.066,0,0,1-.218-3.2,1.7,1.7,0,0,1-.346-.182c-.208-.119-.174-.428-.08-.647s.22-.467.115-.681a1.665,1.665,0,0,0-.192-.243,1.223,1.223,0,0,1-.178-.663l-.066-.919a1.8,1.8,0,0,1,.907.793,3.032,3.032,0,0,1,.116-2.733,1.245,1.245,0,0,1,1.169-.926C843.893,593.026,846.386,592.162,848.044,593.409Z" transform="translate(-710.766 -280.172)"/>
    <path id="Path_160" data-name="Path 160" d="M889.06,638.93s-1,.67-1,1.172-.255,5.017-.255,5.017V648.3a8.574,8.574,0,0,1,0,2.091,13.428,13.428,0,0,0,0,2.593c0,.251.255-2.593.255-2.593v-3.016l.255-6.859Z" transform="translate(-752.712 -320.465)" opacity="0.1"/>
    <path id="Path_161" data-name="Path 161" d="M791.581,411.517l-.585-.228c-1.194-.479-2.39-.959-3.546-1.52a5.421,5.421,0,0,1-2.216-1.662c-.168-.255-.3-.522-.465-.773a6.166,6.166,0,0,0-.637-.755l-1.561-1.668c-.12.223.033.485.155.705a3.058,3.058,0,0,1,.289.737.341.341,0,0,1-.009.255.5.5,0,0,1-.213.15.748.748,0,0,0-.322.862.962.962,0,0,0,.721.621,1.37,1.37,0,0,1,.322.078c.189.093.278.306.413.465a1.853,1.853,0,0,0,1.009.5c.578.658,1.178,1.289,1.756,1.947a12.6,12.6,0,0,0,2.909,2.684,4.259,4.259,0,0,0,1.313.527A21.282,21.282,0,0,1,791.581,411.517Z" transform="translate(-659.963 -116.246)" fill="#a1616a"/>
    <path id="Path_162" data-name="Path 162" d="M791.581,411.517l-.585-.228c-1.194-.479-2.39-.959-3.546-1.52a5.421,5.421,0,0,1-2.216-1.662c-.168-.255-.3-.522-.465-.773a6.166,6.166,0,0,0-.637-.755l-1.561-1.668c-.12.223.033.485.155.705a3.058,3.058,0,0,1,.289.737.341.341,0,0,1-.009.255.5.5,0,0,1-.213.15.748.748,0,0,0-.322.862.962.962,0,0,0,.721.621,1.37,1.37,0,0,1,.322.078c.189.093.278.306.413.465a1.853,1.853,0,0,0,1.009.5c.578.658,1.178,1.289,1.756,1.947a12.6,12.6,0,0,0,2.909,2.684,4.259,4.259,0,0,0,1.313.527A21.282,21.282,0,0,1,791.581,411.517Z" transform="translate(-659.963 -116.246)" opacity="0.15"/>
    <path id="Path_163" data-name="Path 163" d="M841.941,458.963a.7.7,0,0,1-.5-.239.672.672,0,0,1-.055-.439,12.324,12.324,0,0,1,.637-2.814,3.042,3.042,0,0,0,1.373,1.109,10.186,10.186,0,0,0,1.475.672c-.127-.041-.439,1.918-.615,2.037-.222.155-.756-.055-1-.1Z" transform="translate(-712.26 -160.367)" fill="#3aa1a2"/>
    <circle id="Ellipse_28" data-name="Ellipse 28" cx="2.677" cy="2.677" r="2.677" transform="translate(128.361 292.664)" fill="#a1616a"/>
    <path id="Path_164" data-name="Path 164" d="M852.22,462.052s1.756,1.505,1,2.509-1.172,1.673-.168,1.757,4.349-1.673,4.349-1.673-3.094-2.509-2.593-4.014S852.22,462.052,852.22,462.052Z" transform="translate(-721.726 -164.495)" fill="#fbbebe"/>
    <path id="Path_165" data-name="Path 165" d="M846.409,480.338a2.077,2.077,0,0,0-1.537,1.546c-.2.9.222,1.91-.173,2.74a10.888,10.888,0,0,1-.764,1.061,2.165,2.165,0,0,0,.2,2.5c.174.2.4.391.419.653a2.4,2.4,0,0,1-.036.357,2.643,2.643,0,0,0,.183.829.844.844,0,0,1-.07.685.991.991,0,0,0-.173.658,4.408,4.408,0,0,1-.111,1.072c-.011.155,0,.311-.014.466a2.713,2.713,0,0,1-.092.437l-.224.826a9.186,9.186,0,0,0,3.82.683,18.726,18.726,0,0,0,3.488-.509c.35-.074.7-.148,1.045-.243a5.648,5.648,0,0,1-.826-3.413,50.955,50.955,0,0,0-.447-5.972,7.677,7.677,0,0,0,.655-2.148,3.64,3.64,0,0,0,.081-.908,4.831,4.831,0,0,0-.615-1.818,2.356,2.356,0,0,0-1.131-1.31.9.9,0,0,0-.87.1c-.442.334-.311.909-.424,1.4a1.88,1.88,0,0,1-1.361,1.273,4.424,4.424,0,0,1-1.431.134.255.255,0,0,1-.181-.418C846.027,480.785,846.233,480.555,846.409,480.338Z" transform="translate(-714.23 -180.426)" fill="#3aa1a2"/>
    <path id="Path_166" data-name="Path 166" d="M843.348,574.49a17.43,17.43,0,0,1-3.136,2.2c-.671.336-1.384.584-2.037.946a.814.814,0,0,0-.382.346.856.856,0,0,0-.02.478l.29,2c.08.542.6.891,1.019,1.238a.733.733,0,0,1,.027-.485,1.632,1.632,0,0,1,.1-.146,1.374,1.374,0,0,0,.141-.941,5.224,5.224,0,0,1-.111-.965.316.316,0,0,1,.135-.28c1.422-.684,2.954-1.208,4.392-1.858a4.654,4.654,0,0,0,1.066-.6,1.64,1.64,0,0,0,.619-1.028.2.2,0,0,0-.025-.157.213.213,0,0,0-.108-.064C844.669,574.937,843.99,574.722,843.348,574.49Z" transform="translate(-709.096 -264.231)" fill="#a1616a"/>
    <path id="Path_167" data-name="Path 167" d="M851.577,508.484a1.44,1.44,0,0,0-1.175.809,1.8,1.8,0,0,0-.066.637,2.07,2.07,0,0,0,.149.883,2.5,2.5,0,0,0,.3.433c1.177,1.508,1.768,3.4,2.914,4.933.1.135.288.311.23.47a1.137,1.137,0,0,0-.055.127.255.255,0,0,0,.084.223.542.542,0,0,1,.139.2c.022.08-.032.185-.115.178a1.7,1.7,0,0,0,.959.875,3.992,3.992,0,0,0,2.141.526,4.884,4.884,0,0,0,.255-1.752,4.552,4.552,0,0,0-.427-1.243l-.5-1.087A16.191,16.191,0,0,0,854.966,512a4.075,4.075,0,0,1-.534-.859c-.151-.394-.568-.67-.82-1.007a6.243,6.243,0,0,0-1.266-1.387A1.144,1.144,0,0,0,851.577,508.484Z" transform="translate(-720.077 -206.624)" opacity="0.1"/>
    <path id="Path_168" data-name="Path 168" d="M851.577,506.514a1.441,1.441,0,0,0-1.175.807,1.805,1.805,0,0,0-.066.637,2.07,2.07,0,0,0,.149.882,2.487,2.487,0,0,0,.3.433c1.177,1.508,1.768,3.4,2.914,4.933.1.135.288.311.23.47a1.149,1.149,0,0,0-.055.127.254.254,0,0,0,.084.223.545.545,0,0,1,.139.2c.022.08-.032.185-.115.178a1.7,1.7,0,0,0,.959.875,3.991,3.991,0,0,0,2.141.526,4.886,4.886,0,0,0,.255-1.752,4.548,4.548,0,0,0-.427-1.243l-.5-1.088a16.193,16.193,0,0,0-1.443-2.695,4.052,4.052,0,0,1-.534-.861c-.151-.392-.568-.669-.82-1.006a6.244,6.244,0,0,0-1.266-1.387A1.149,1.149,0,0,0,851.577,506.514Z" transform="translate(-720.078 -204.905)" fill="#3aa1a2"/>
    <path id="Path_169" data-name="Path 169" d="M835.881,418.276a2.948,2.948,0,0,0-1.042.219,1,1,0,0,0-.6.817,4.854,4.854,0,0,1,.05.619c-.045.341-.362.572-.525.874a1.565,1.565,0,0,0,.306,1.655c.369.464.87.82,1.249,1.281A3.311,3.311,0,0,1,836,426.4a2.113,2.113,0,0,0-.067.557,1.6,1.6,0,0,0,.479.865,39.94,39.94,0,0,1,3.021,4.019,10.856,10.856,0,0,1,.744,1.273,7.721,7.721,0,0,0,.683,1.346,3.555,3.555,0,0,0,1,.86,7.077,7.077,0,0,0,3.209,1.035l-.656-1.626a1.867,1.867,0,0,1-.2-.9c.073-.586.663-.97.856-1.528a1.853,1.853,0,0,0-.034-1.121c-.232-.824-.7-1.565-.945-2.384a4.839,4.839,0,0,1-.143-2.217,3.422,3.422,0,0,0,.1-.981c-.121-1-1.289-1.472-1.829-2.316a5,5,0,0,1-.534-1.845,5.824,5.824,0,0,0-1.054-2.589,3.039,3.039,0,0,0-2.419-1.234,4.891,4.891,0,0,0-1.454.364l-1.228.447" transform="translate(-705.503 -127.332)"/>
    <g id="Group_17" data-name="Group 17" transform="translate(128.13 292.651)" opacity="0.1">
      <path id="Path_170" data-name="Path 170" d="M893.825,436.592a5.894,5.894,0,0,0,.439,1.682c-.037-.2-.068-.4-.1-.595a7.419,7.419,0,0,0-.41-1.459C893.782,436.344,893.8,436.467,893.825,436.592Z" transform="translate(-886.098 -436.22)"/>
      <path id="Path_171" data-name="Path 171" d="M911.62,475.017a4.864,4.864,0,0,0,.143,2.218,5.7,5.7,0,0,0,.209.573,4.845,4.845,0,0,1-.017-1.7,3.421,3.421,0,0,0,.1-.98,1.529,1.529,0,0,0-.331-.764C911.708,474.582,911.657,474.8,911.62,475.017Z" transform="translate(-901.633 -469.503)"/>
      <path id="Path_172" data-name="Path 172" d="M915.259,519.373a6.161,6.161,0,0,0-.255-.7,1.563,1.563,0,0,1-.048.736c-.192.556-.784.942-.856,1.528a1.856,1.856,0,0,0,.2.9c.043.108.087.218.127.326a1.072,1.072,0,0,1,0-.141c.073-.586.664-.97.856-1.528A1.779,1.779,0,0,0,915.259,519.373Z" transform="translate(-903.85 -508.171)"/>
      <path id="Path_173" data-name="Path 173" d="M857.33,495.847a3.566,3.566,0,0,1-1-.861,7.686,7.686,0,0,1-.684-1.346,10.742,10.742,0,0,0-.744-1.273,40,40,0,0,0-3.019-4.02c-.04-.045-.078-.09-.116-.136a1.3,1.3,0,0,0-.029.359,1.6,1.6,0,0,0,.479.865,39.942,39.942,0,0,1,3.021,4.019,10.851,10.851,0,0,1,.744,1.273,7.736,7.736,0,0,0,.682,1.346,3.555,3.555,0,0,0,1,.86,7.077,7.077,0,0,0,3.209,1.035l-.446-1.1A7.085,7.085,0,0,1,857.33,495.847Z" transform="translate(-849.432 -481.589)"/>
      <path id="Path_174" data-name="Path 174" d="M835,447.535c-.382-.461-.88-.811-1.249-1.28-.033-.043-.065-.088-.1-.135a1.853,1.853,0,0,0,.432,1.221c.369.47.87.82,1.249,1.281a3.188,3.188,0,0,1,.382.581A3.311,3.311,0,0,0,835,447.535Z" transform="translate(-833.658 -444.859)"/>
    </g>
    <path id="Path_175" data-name="Path 175" d="M374.124,347.223l-.923-.928a.49.49,0,0,0-.7,0l-5.8,5.744-2.453-2.47a.489.489,0,0,0-.691,0l-.933.923a.5.5,0,0,0,0,.7l3.725,3.753a.494.494,0,0,0,.7,0l7.075-7.022a.49.49,0,0,0,0-.7Z" transform="translate(-289.503 -64.968)" fill="#92c7a3"/>
    <path id="Path_176" data-name="Path 176" d="M575.125,347.223l-.923-.928a.49.49,0,0,0-.7,0l-5.8,5.744-2.453-2.47a.489.489,0,0,0-.691,0l-.933.923a.5.5,0,0,0,0,.7l3.725,3.753a.494.494,0,0,0,.7,0l7.075-7.022a.49.49,0,0,0,0-.7Z" transform="translate(-467.276 -64.968)" fill="#92c7a3"/>
  </g>
</svg>
