<svg xmlns="http://www.w3.org/2000/svg" width="90.118" height="100.395" viewBox="0 0 90.118 100.395">
  <g id="Group_11269" data-name="Group 11269" transform="translate(-57.733 -418.098)">
    <path id="Path_60" data-name="Path 60" d="M833.519,156.708a.467.467,0,0,0-.466.466v18.277a.467.467,0,0,0,.466.466h21.348a.467.467,0,0,0,.466-.466V157.174a.467.467,0,0,0-.466-.466Z" transform="translate(-712.664 261.39)" fill="#e6e6e6"/>
    <path id="Path_61" data-name="Path 61" d="M855.462,231.709a.2.2,0,0,0,0,.4h15.618a.205.205,0,0,0,0-.4Z" transform="translate(-731.646 197.39)" fill="#fff"/>
    <path id="Path_62" data-name="Path 62" d="M854.153,247.982a.205.205,0,0,0,0,.4h15.618a.205.205,0,0,0,0-.4Z" transform="translate(-730.529 183.503)" fill="#fff"/>
    <path id="Path_63" data-name="Path 63" d="M855.462,264.256a.2.2,0,0,0,0,.4h15.618a.2.2,0,0,0,0-.4Z" transform="translate(-731.646 169.617)" fill="#fff"/>
    <path id="Path_64" data-name="Path 64" d="M855.462,177.384a.205.205,0,0,0,0,.4H871.08a.205.205,0,0,0,0-.4Z" transform="translate(-731.646 243.746)" fill="#fff"/>
    <path id="Path_65" data-name="Path 65" d="M854.153,193.658a.205.205,0,0,0,0,.4h15.618a.205.205,0,0,0,0-.4Z" transform="translate(-730.529 229.859)" fill="#fff"/>
    <path id="Path_66" data-name="Path 66" d="M855.462,209.931a.205.205,0,0,0,0,.4H871.08a.205.205,0,0,0,0-.4Z" transform="translate(-731.646 215.973)" fill="#fff"/>
    <path id="Path_67" data-name="Path 67" d="M768.466,207.662a.467.467,0,0,0-.466.466v18.277a.467.467,0,0,0,.466.466h21.348a.467.467,0,0,0,.466-.466V208.129a.467.467,0,0,0-.466-.466Z" transform="translate(-657.152 217.909)" fill="#225b6e"/>
    <path id="Path_68" data-name="Path 68" d="M790.409,282.663a.205.205,0,0,0,0,.4h15.618a.2.2,0,0,0,0-.4Z" transform="translate(-676.134 153.91)" fill="#fff"/>
    <path id="Path_69" data-name="Path 69" d="M789.1,298.936a.2.2,0,0,0,0,.4h15.618a.2.2,0,0,0,0-.4Z" transform="translate(-675.018 140.023)" fill="#fff"/>
    <path id="Path_70" data-name="Path 70" d="M790.409,315.21a.205.205,0,0,0,0,.4h15.618a.2.2,0,0,0,0-.4Z" transform="translate(-676.134 126.136)" fill="#fff"/>
    <path id="Path_71" data-name="Path 71" d="M790.409,228.339a.205.205,0,0,0,0,.4h15.618a.205.205,0,0,0,0-.4Z" transform="translate(-676.134 200.266)" fill="#fff"/>
    <path id="Path_72" data-name="Path 72" d="M789.1,244.612a.205.205,0,0,0,0,.4h15.618a.205.205,0,0,0,0-.4Z" transform="translate(-675.018 186.379)" fill="#fff"/>
    <path id="Path_73" data-name="Path 73" d="M790.409,260.886a.205.205,0,0,0,0,.4h15.618a.205.205,0,0,0,0-.4Z" transform="translate(-676.134 172.493)" fill="#fff"/>
    <path id="Path_74" data-name="Path 74" d="M823.848,514.483l.112,2.126,2.35-.224-.224-2.126Z" transform="translate(-682.377 -20.731)" fill="#fbbebe"/>
    <path id="Path_75" data-name="Path 75" d="M762.058,497.7l.112,2.126,2.35-.224-.224-2.126Z" transform="translate(-629.65 -6.41)" fill="#fbbebe"/>
    <path id="Path_76" data-name="Path 76" d="M922.1,475.3l-8.5,1.455-.559,15.441-2.238,9.846,3.581,1.566,3.469-9.734,1.231-8.616.9,8.616.112,10.853,5.483-.336-1.311-21.254A19.776,19.776,0,0,0,922.1,475.3Z" transform="translate(-779.003 -10.472)"/>
    <path id="Path_77" data-name="Path 77" d="M971.909,677.953s-.783-.9-.783-.559-.447,3.581-.447,3.581,3.021.9,3.021,1.455,4.364,1.455,4.252.336-3.916-5.371-3.916-5.371S972.469,677.17,971.909,677.953Z" transform="translate(-830.102 -182.859)"/>
    <path id="Path_78" data-name="Path 78" d="M903.3,659.6s-.238-1.165-.4-.873-2.159,2.891-2.159,2.891,2.184,2.271,1.907,2.758,3.075,3.421,3.53,2.393-.75-6.6-.75-6.6S904.171,659.2,903.3,659.6Z" transform="translate(-770.417 -166.956)"/>
    <path id="Path_79" data-name="Path 79" d="M764.106,196.9l6.195.592,2.065-5.627-5.93-1.429Z" transform="translate(-631.397 255.595)"/>
    <circle id="Ellipse_14" data-name="Ellipse 14" cx="3.133" cy="3.133" r="3.133" transform="translate(134.646 445.079)" fill="#fbbebe"/>
    <path id="Path_80" data-name="Path 80" d="M927.841,374.987a3.636,3.636,0,0,1-1.678,3.021c-1.678.9,4.028,1.9,4.028,1.9l.559-1.9s-1.678-.783-.224-2.574Z" transform="translate(-791.852 75.127)" fill="#fbbebe"/>
    <path id="Path_81" data-name="Path 81" d="M913.446,390.467s-2.049,1.269-3.766.131l-.71-.131-2.126.448-1.007,3.8,3.8,9.511s6.6,1.119,7.944-1.343l-.783-10.07-2.126-2.573Z" transform="translate(-774.772 62.109)" fill="#225b6e"/>
    <path id="Path_82" data-name="Path 82" d="M803.181,179.192l3.692-5.147-.336-.559-4.811-2.462v-1.567l7.5,2.014.507.8-4.423,9.6Z" transform="translate(-663.5 273.496)" fill="#225b6e"/>
    <path id="Path_83" data-name="Path 83" d="M707.267,205.677l-.224-.112-5.594-.224,4.252-3.692-1.343-1.678-6.378,4.811V205.9l9.063,3.8Z" transform="translate(-574.971 247.458)" fill="#225b6e"/>
    <path id="Path_84" data-name="Path 84" d="M894.013,348.467l.783-.448s1.678-2.238,2.35-1.343-1.566,2.574-1.566,2.574l-1.231.448Z" transform="translate(-764.682 99.466)" fill="#fbbebe"/>
    <path id="Path_85" data-name="Path 85" d="M930.691,324.548l-1.231-.671s-3.692.336-3.245,1.119,3.021.112,3.021.112l1.455.448Z" transform="translate(-792.129 118.741)" fill="#fbbebe"/>
    <path id="Path_86" data-name="Path 86" d="M917.407,337a2.491,2.491,0,0,0-1.511,2.373,3.359,3.359,0,0,0,.1.9,2.635,2.635,0,0,1-.494,2.047,20.259,20.259,0,0,0-1.15,1.978l0,.009,1.579.2.336-2.618a13.035,13.035,0,0,1,1.035-3.675l.011-.024a2.543,2.543,0,0,0,2.073,1.283l-.494-.494a13.616,13.616,0,0,0,2.961.888s.592.395,0,.987-1.777,1.974-1.086,3.06.1,1.382.1,1.382l1.086-.592.494-.3v.395l2.567-.3s.691-.1-.79-1.777a1.759,1.759,0,0,1-.22-1.214,2.836,2.836,0,0,0,.108-1.326C923.774,338.335,922.473,334.655,917.407,337Z" transform="translate(-782.033 108.189)"/>
    <g id="Group_13" data-name="Group 13" transform="translate(86.415 447.907)">
      <path id="Path_88" data-name="Path 88" d="M401.068,380.067H366.19c-.182,0-.329-.221-.329-.494s.147-.494.329-.494h34.878c.182,0,.329.221.329.494S401.25,380.067,401.068,380.067Z" transform="translate(-365.86 -379.079)" fill="#f4f2f2"/>
      <path id="Path_89" data-name="Path 89" d="M401.068,399.168H366.19c-.182,0-.329-.221-.329-.494s.147-.494.329-.494h34.878c.182,0,.329.221.329.494S401.25,399.168,401.068,399.168Z" transform="translate(-365.86 -394.23)" fill="#f4f2f2"/>
      <path id="Path_90" data-name="Path 90" d="M401.068,418.27H366.19c-.182,0-.329-.221-.329-.494s.147-.494.329-.494h34.878c.182,0,.329.221.329.494s-.147.494-.329.494Z" transform="translate(-365.86 -409.381)" fill="#f4f2f2"/>
      <path id="Path_91" data-name="Path 91" d="M401.068,437.227H366.19c-.182,0-.329-.221-.329-.494s.147-.494.329-.494h34.878c.182,0,.329.221.329.494S401.25,437.227,401.068,437.227Z" transform="translate(-365.86 -424.418)" fill="#f4f2f2"/>
      <path id="Path_92" data-name="Path 92" d="M401.068,456.328H366.19c-.182,0-.329-.221-.329-.494s.147-.494.329-.494h34.878c.182,0,.329.221.329.494S401.25,456.328,401.068,456.328Z" transform="translate(-365.86 -439.569)" fill="#f4f2f2"/>
      <path id="Path_93" data-name="Path 93" d="M556.559,476.01a.141.141,0,0,0-.141.141v3.738a.141.141,0,0,0,.141.141h13.075a.141.141,0,0,0,.141-.141v-3.738a.141.141,0,0,0-.141-.141Z" transform="translate(-534.803 -455.964)" fill="#f4f2f2"/>
    </g>
    <path id="Path_94" data-name="Path 94" d="M196.715,504.18s-1.08,12.98-1.311,15.762a19.782,19.782,0,0,1-1.159,5.1,4.8,4.8,0,0,0-.464,1.854v11.821a.689.689,0,0,0-.7.927c.232.927.464,2.55.464,2.55h3.477a.718.718,0,0,1,.464-.927c.7-.232,0-2.086,0-2.086l3.709-13.907,5.563-11.59s3.245,10.431,3.94,11.59c0,0,2.55,12.98,3.013,14.139s.7,1.159.464,1.623a1.035,1.035,0,0,0,0,1.159c.232.232,4.636,0,4.636,0l-1.159-16.457-2.086-19.7-10.662-3.245Z" transform="translate(-132.446 -29.298)"/>
    <path id="Path_95" data-name="Path 95" d="M185.095,676.06s-1.159-4.172-3.013-.927-1.854,4.4-1.854,4.4-3.013,4.4,1.159,3.94,3.245-2.55,3.245-2.55,1.623-.927,1.623-1.622A16.625,16.625,0,0,0,185.095,676.06Z" transform="translate(-121.442 -165.018)" fill="#225b6e"/>
    <path id="Path_96" data-name="Path 96" d="M294.137,673.818s1.159-4.172,3.013-.927,1.854,4.4,1.854,4.4,3.013,4.4-1.159,3.94-3.245-2.55-3.245-2.55-1.623-.927-1.623-1.622A16.624,16.624,0,0,1,294.137,673.818Z" transform="translate(-211.709 -163.24)" fill="#225b6e"/>
    <path id="Path_97" data-name="Path 97" d="M241.319,358.209s.464,3.013-.927,3.709,3.013,3.245,4.172,3.245,3.245-2.318,3.245-2.318-1.159-3.477-.927-4.172Z" transform="translate(-169.785 85.381)" fill="#ffb9b9"/>
    <circle id="Ellipse_15" data-name="Ellipse 15" cx="4.868" cy="4.868" r="4.868" transform="translate(69.216 436.174)" fill="#ffb9b9"/>
    <path id="Path_98" data-name="Path 98" d="M229.188,378.962l-5.795-3.511s-3.3,3.743-6.864-.43l-6.117,1.622.927,15.762s-1.391,6.258-.927,7.417-1.159,1.623-.7,1.854,0,1.854,0,1.854,9.04,4.636,19.007,1.159l-.927-3.013a2.432,2.432,0,0,0-.464-2.318,2.051,2.051,0,0,0-.232-2.55s.464-2.086-.7-3.013l-.232-3.245.7-1.623Z" transform="translate(-145.601 72.047)" fill="#cfcce0"/>
    <path id="Path_99" data-name="Path 99" d="M236.065,320.367s-.58,1.256,1.741.754c0,0,.87.5.87-.251,0,0,1.161,1.256,1.451.5s.87.251.87.251l.58-1.256.58.754h2.031s.58-5.023-6.383-4.521-3.538,8.462-3.538,8.462.056-1.429.636-.675S236.065,320.367,236.065,320.367Z" transform="translate(-164.472 118.414)"/>
    <path id="Path_100" data-name="Path 100" d="M297.577,438.905l.232,4.868s.927,9.04-.927,12.98v2.086s-.464,5.331-2.781,5.1.7-7.649.7-7.649l-.464-10.2-.464-5.795Z" transform="translate(-211.904 21.374)" fill="#ffb9b9"/>
    <path id="Path_101" data-name="Path 101" d="M283.856,393.754l2.312-.376a11.289,11.289,0,0,1,3.251,5.939c.7,3.709.927,4.4.927,4.4l-5.563,1.391-3.013-5.795Z" transform="translate(-202.819 57.486)" fill="#cfcce0"/>
    <g id="Group_12" data-name="Group 12" transform="translate(70.92 452.613)">
      <path id="Path_102" data-name="Path 102" d="M243.194,401.835c-.141,0-.256.184-.256.411v31.439c0,.227.115.411.256.411h44.676c.141,0,.256-.184.256-.411V402.246c0-.227-.115-.411-.256-.411Z" transform="translate(-242.938 -401.835)" fill="#225b6e"/>
      <path id="Path_103" data-name="Path 103" d="M315.189,428.038h-25.45c-.133,0-.24-.221-.24-.494s.107-.494.24-.494h25.45c.133,0,.24.221.24.494S315.321,428.038,315.189,428.038Z" transform="translate(-279.869 -421.835)" fill="#fff"/>
      <path id="Path_104" data-name="Path 104" d="M315.189,447.139h-25.45c-.133,0-.24-.221-.24-.494s.107-.494.24-.494h25.45c.133,0,.24.221.24.494S315.321,447.139,315.189,447.139Z" transform="translate(-279.869 -436.986)" fill="#fff"/>
      <path id="Path_105" data-name="Path 105" d="M315.189,466.241h-25.45c-.133,0-.24-.221-.24-.494s.107-.494.24-.494h25.45c.133,0,.24.221.24.494S315.321,466.241,315.189,466.241Z" transform="translate(-279.869 -452.137)" fill="#fff"/>
      <path id="Path_106" data-name="Path 106" d="M315.189,485.2h-25.45c-.133,0-.24-.221-.24-.494s.107-.494.24-.494h25.45c.133,0,.24.221.24.494S315.321,485.2,315.189,485.2Z" transform="translate(-279.869 -467.174)" fill="#fff"/>
      <path id="Path_107" data-name="Path 107" d="M315.189,504.3h-25.45c-.133,0-.24-.221-.24-.494s.107-.494.24-.494h25.45c.133,0,.24.221.24.494S315.321,504.3,315.189,504.3Z" transform="translate(-279.869 -482.325)" fill="#fff"/>
      <path id="Path_108" data-name="Path 108" d="M480.2,523.982a.141.141,0,0,0-.141.141v3.738a.141.141,0,0,0,.141.141h13.075a.141.141,0,0,0,.141-.141v-3.738a.141.141,0,0,0-.141-.141Z" transform="translate(-455.53 -498.72)" fill="#fff"/>
    </g>
    <path id="Path_109" data-name="Path 109" d="M193.509,403.1s-2.086,8.808.464,8.808,8.576-9.967,8.576-9.967,6.258-3.245,3.709-4.4-5.795,1.854-5.795,1.854l-3.744,5.2-.2-2.649Z" transform="translate(-132.174 54.396)" fill="#ffb9b9"/>
    <path id="Path_110" data-name="Path 110" d="M197.9,384.257l-1.391-1.391s-2.781,1.623-3.013,3.245-1.391,6.722-1.391,6.722l4.288.348,1.391-2.086Z" transform="translate(-131.7 65.824)" fill="#cfcce0"/>
  </g>
</svg>
