<svg xmlns="http://www.w3.org/2000/svg" width="24.012" height="20" viewBox="0 0 24.012 20">
  <g id="Group_11178" data-name="Group 11178" transform="translate(0 -0.69)">
    <g id="iconfinder_icons_home_1564508" transform="translate(0 1.734)">
      <path id="home" d="M23.63,10.31,13.217,2.4a2.272,2.272,0,0,0-2.5,0L.4,10.31a.928.928,0,0,0,.6,1.7H2V18.12a4,4,0,0,0,4.005,3.9h2a.946.946,0,0,0,1-1V16.118a2.1,2.1,0,0,1,2-2.1h2a2.1,2.1,0,0,1,2,2.1v4.906a1,1,0,0,0,1,1h2a4,4,0,0,0,4.005-3.9V12.012h1A.956.956,0,0,0,23.63,10.31Z" transform="translate(0.026 -3.069)"/>
    </g>
  </g>
</svg>
