<svg xmlns="http://www.w3.org/2000/svg" xmlns:xlink="http://www.w3.org/1999/xlink" width="111.189" height="78.451" viewBox="0 0 111.189 78.451">
  <defs>
    <linearGradient id="linear-gradient" x1="0.5" y1="1" x2="0.5" gradientUnits="objectBoundingBox">
      <stop offset="0" stop-color="gray" stop-opacity="0.251"/>
      <stop offset="0.54" stop-color="gray" stop-opacity="0.122"/>
      <stop offset="1" stop-color="gray" stop-opacity="0.102"/>
    </linearGradient>
    <linearGradient id="linear-gradient-2" x1="0.5" y1="1" x2="0.5" y2="0" xlink:href="#linear-gradient"/>
  </defs>
  <g id="Group_11271" data-name="Group 11271" transform="translate(-217.163 -429.07)">
    <ellipse id="Ellipse_121" data-name="Ellipse 121" cx="9.766" cy="1.569" rx="9.766" ry="1.569" transform="translate(244.655 504.34)" fill="#225b6e" opacity="0.1"/>
    <ellipse id="Ellipse_122" data-name="Ellipse 122" cx="12.186" cy="1.569" rx="12.186" ry="1.569" transform="translate(295.321 504.384)" fill="#225b6e" opacity="0.1"/>
    <path id="Path_31590" data-name="Path 31590" d="M59.208,396.83H69.38v13.864H59.953c-.025.142-.049.286-.075.429h9.5V422.3c-.017-.005-.032-.011-.048-.017-.269-.106-.535-.218-.8-.339l-.17-.077q-.4-.189-.8-.4c-.093-.049-.186-.1-.279-.152a16.679,16.679,0,0,1-4-3.123c-.034-.033-.066-.068-.1-.1-.162-.176-.322-.355-.476-.537l-.17-.2c-.182-.223-.359-.453-.53-.686-.025-.034-.049-.068-.075-.1a14.921,14.921,0,0,1-1.724-3.117c-.014-.033-.026-.069-.039-.1q-.206-.531-.366-1.072c-.046-.151-.09-.3-.128-.458-.014-.046-.026-.091-.037-.136A27.4,27.4,0,0,1,59,404.865v-.8c0-.927.011-1.86.027-2.792,0-.242.01-.482.015-.725q.021-.923.06-1.846c.006-.171.014-.342.023-.512a2.9,2.9,0,0,1,.015-.295C59.164,397.537,59.184,397.183,59.208,396.83Z" transform="translate(159.779 66.137)" fill="#225b6e" opacity="0.1"/>
    <path id="Path_31591" data-name="Path 31591" d="M112.48,179.5H106.9a42.3,42.3,0,0,1,2.968-4.085c.829-1.018,1.7-2.011,2.612-2.967Z" transform="translate(116.679 268.028)" fill="#225b6e" opacity="0.1"/>
    <path id="Path_31592" data-name="Path 31592" d="M71.54,247.09v14.579H61.4c0-.042.007-.085.01-.127.009-.115.018-.23.028-.345.011-.134.023-.27.036-.4s.027-.292.042-.437.029-.293.046-.438.032-.291.05-.435.034-.291.053-.435c.015-.12.031-.24.047-.36.023-.169.047-.34.073-.508a.469.469,0,0,1,.011-.075,34.669,34.669,0,0,1,.747-3.66,27.069,27.069,0,0,1,1.258-3.708,27.838,27.838,0,0,1,1.892-3.644Z" transform="translate(157.619 200.869)" fill="#225b6e" opacity="0.1"/>
    <path id="Path_31593" data-name="Path 31593" d="M186.8,92.52v13.865h21.726V92.52Zm0,14.293v11.907c.124.026.248.051.37.072.166.032.332.061.5.086.032.005.065.01.1.013.066.011.134.02.2.029.167.023.334.042.5.057.079.008.159.015.24.021l.193.015h0c.105.008.209.014.313.017.064,0,.128.006.194.008h.715c.086,0,.172,0,.258-.008h.006a1.35,1.35,0,0,0,.179-.008h.05a1.037,1.037,0,0,0,.148-.007h.035l.336-.026c.11-.01.221-.023.334-.035l.229-.027a19.989,19.989,0,0,0,2.751-.585c2.027-.565,4.009-1.356,6.035-1.935a13.331,13.331,0,0,1,8.043-.2v-9.393Zm21.726-29.729V58.625a27.93,27.93,0,0,0-7.059.828A34.684,34.684,0,0,0,186.8,67.662v9.421h1.09v.428H186.8V92.092h21.726V77.512H192.368v-.428Zm27.906-6.235a9,9,0,0,1-3.938-1.145c-2.34-1.273-4.209-3.238-6.3-4.9a28.917,28.917,0,0,0-15.243-6.057V77.084h31.015l.077-.081Zm2.825-.5,3,3.287V69.486a11.886,11.886,0,0,0-2.992.858Zm3,51.328V106.813h-6.383c-.017-.063-.034-.127-.054-.191.019.064.035.128.053.191H210.956v10.749c.237.175.47.36.7.547h0c.25.2.5.412.744.619l.25.206c.119.1.24.2.361.295q.361.293.729.577c.121.1.246.19.369.285a50.236,50.236,0,0,0,6.177,4.04q.725.4,1.462.783c.328.167.657.334.988.5q.746.364,1.5.7h0a55.208,55.208,0,0,0,14.633,4.263q1.683.249,3.379.391v-9.089h0Zm-31.3-44.164v14.58h31.3V77.512Zm0,15.008v13.865h31.3V92.52Zm33.73-23.052V74.1l3.824-4.2q-1.9-.307-3.824-.438Zm0,23.057v13.86H275.13V92.52Zm30.332,30.252.107-15.964H244.686v24.111a54.594,54.594,0,0,0,5.883-.07h.034q1.4-.088,2.793-.257h.021a51.44,51.44,0,0,0,14.352-3.83M281,94.8c-.114-.27-.234-.537-.355-.8-.227-.5-.466-.988-.713-1.475h-2.375v13.859h6.006A29.959,29.959,0,0,0,281,94.8Zm-3.443,12.015v13.731a19.67,19.67,0,0,0,4.15-5.6,19.243,19.243,0,0,0,1.85-8.135Zm0-18.333v3.608h2.153a39.081,39.081,0,0,0-2.15-3.613Zm-20.646-16.3c-.158-.06-.317-.121-.476-.18a43.458,43.458,0,0,0-5.143-1.545l-5.851,6.421h0l-.112.119.075.082h20.825a44.542,44.542,0,0,0-9.315-4.9Zm9.928,5.329H245.113l-.427.391V92.092h30.447v-6.87a43.378,43.378,0,0,0-8.292-7.709Z" transform="translate(44.787 370.446)" fill="#225b6e" opacity="0.1"/>
    <path id="Path_31594" data-name="Path 31594" d="M71.54,320.46v7.225H61.4c0-.042.007-.085.01-.127.009-.115.018-.23.028-.345.011-.134.023-.27.036-.4s.027-.292.042-.437.029-.293.046-.438.032-.291.05-.435.034-.291.053-.435c.015-.12.031-.24.047-.36.023-.169.047-.34.073-.508a.469.469,0,0,1,.011-.075,34.669,34.669,0,0,1,.747-3.66Z" transform="translate(157.619 134.853)" fill="#225b6e" opacity="0.1"/>
    <path id="Path_31595" data-name="Path 31595" d="M59.208,396.83H69.38v13.864H59.953c-.025.142-.049.286-.075.429h9.5V422.3c-.017-.005-.032-.011-.048-.017-.269-.106-.535-.218-.8-.339l-.17-.077q-.4-.189-.8-.4c-.093-.049-.186-.1-.279-.152a16.679,16.679,0,0,1-4-3.123c-.034-.033-.066-.068-.1-.1-.162-.176-.322-.355-.476-.537l-.17-.2c-.182-.223-.359-.453-.53-.686-.025-.034-.049-.068-.075-.1a14.921,14.921,0,0,1-1.724-3.117c-.014-.033-.026-.069-.039-.1q-.206-.531-.366-1.072c-.046-.151-.09-.3-.128-.458-.014-.046-.026-.091-.037-.136A27.4,27.4,0,0,1,59,404.865v-.8c0-.927.011-1.86.027-2.792,0-.242.01-.482.015-.725q.021-.923.06-1.846c.006-.171.014-.342.023-.512a2.9,2.9,0,0,1,.015-.295C59.164,397.537,59.184,397.183,59.208,396.83Z" transform="translate(159.779 66.137)" fill="#225b6e" opacity="0.1"/>
    <path id="Path_31596" data-name="Path 31596" d="M147.208,171.31V183.8H139.56V171.31h1.09v-4.23h4.476v4.23Z" transform="translate(92.027 278.736)" fill="#225b6e" opacity="0.1"/>
    <rect id="Rectangle_17370" data-name="Rectangle 17370" width="7.647" height="13.864" transform="translate(231.588 462.966)" fill="#225b6e" opacity="0.1"/>
    <path id="Path_31597" data-name="Path 31597" d="M186.8,539.44h7.648v11.526a19.959,19.959,0,0,1-2.751.584l-.229.028c-.112.013-.224.024-.334.035s-.225.019-.336.026h-.035c-.048,0-.1.006-.147.007h-.051c-.06,0-.12.006-.18.008h0c-.085.005-.17.006-.258.007h-.71l-.193-.007c-.1,0-.208-.011-.313-.018h0l-.192-.014-.24-.022c-.168-.015-.336-.034-.5-.057l-.2-.028-.1-.014c-.167-.026-.333-.054-.5-.086-.123-.021-.246-.047-.37-.072Z" transform="translate(44.787 -62.18)" fill="#225b6e" opacity="0.1"/>
    <rect id="Rectangle_17371" data-name="Rectangle 17371" width="6.306" height="13.966" transform="translate(280.738 448.57)" fill="#225b6e" opacity="0.1"/>
    <path id="Path_31598" data-name="Path 31598" d="M411.881,338.19v13.865h-31.3v-5.98h16.672V349.6h8.322V338.19Z" transform="translate(-124.836 124.776)" fill="#225b6e" opacity="0.1"/>
    <path id="Path_31599" data-name="Path 31599" d="M459.221,552.587h-.1v9.1q-1.694-.143-3.378-.39a55.209,55.209,0,0,1-14.639-4.272q-2.018-.908-3.953-1.982a50.44,50.44,0,0,1-6.178-4.04q-.738-.565-1.456-1.157c-.332-.274-.661-.554-1-.827-.232-.187-.465-.372-.7-.548V537.721h24.911c-.017-.064-.034-.128-.052-.191.019.063.037.127.054.191h6.387v14.859C459.154,552.582,459.188,552.585,459.221,552.587Z" transform="translate(-172.076 -60.462)" fill="#225b6e" opacity="0.1"/>
    <path id="Path_31600" data-name="Path 31600" d="M867.329,197.2H863.22v-1.277h1.842v-3.8q.24.087.477.179v3.624h1.79Z" transform="translate(-563.838 250.33)" fill="#225b6e" opacity="0.1"/>
    <path id="Path_31601" data-name="Path 31601" d="M788.278,261.669H768.1l.007.005-.009-.005H764.36V247.7h1.06v10.323h4.846v-6.114h4V247.09h4.109v4.826h4v6.114h5.9Z" transform="translate(-474.886 200.869)" fill="#225b6e" opacity="0.1"/>
    <path id="Path_31602" data-name="Path 31602" d="M764.36,396.82v13.865h23.918V396.82Zm30.41,30.186.033-10.975h-6.526V411.12H764.36v24.1a54.59,54.59,0,0,0,5.883-.07h.034q1.4-.088,2.793-.257h.021a51.44,51.44,0,0,0,14.352-3.83" transform="translate(-474.886 66.146)" fill="#225b6e" opacity="0.1"/>
    <path id="Path_31603" data-name="Path 31603" d="M1092.791,539.44h5.58a19.3,19.3,0,0,1-1.851,8.134,19.675,19.675,0,0,1-4.149,5.6v-8.82h.421Z" transform="translate(-770.021 -62.18)" fill="#225b6e" opacity="0.1"/>
    <path id="Path_31604" data-name="Path 31604" d="M1102.153,431.137h-5.583V419.55h3.021A30,30,0,0,1,1102.153,431.137Z" transform="translate(-773.801 45.694)" fill="#225b6e" opacity="0.1"/>
    <rect id="Rectangle_17372" data-name="Rectangle 17372" width="3.379" height="4.379" transform="translate(283.667 452.453)" fill="#225b6e" opacity="0.1"/>
    <rect id="Rectangle_17373" data-name="Rectangle 17373" width="3.379" height="1.008" transform="translate(283.667 461.53)" fill="#225b6e" opacity="0.1"/>
    <rect id="Rectangle_17374" data-name="Rectangle 17374" width="3.379" height="2.942" transform="translate(283.667 462.966)" fill="#225b6e" opacity="0.1"/>
    <rect id="Rectangle_17375" data-name="Rectangle 17375" width="3.379" height="4.379" transform="translate(283.667 470.606)" fill="#225b6e" opacity="0.1"/>
    <rect id="Rectangle_17376" data-name="Rectangle 17376" width="3.379" height="4.379" transform="translate(283.667 479.682)" fill="#225b6e" opacity="0.1"/>
    <path id="Path_31605" data-name="Path 31605" d="M709.8,657.531a.553.553,0,0,1,.1.006h-.1v1.017H706.42V654.17H709.8Z" transform="translate(-422.753 -165.411)" fill="#225b6e" opacity="0.1"/>
    <path id="Path_31606" data-name="Path 31606" d="M709.8,744.71v3.383q-1.694-.143-3.378-.39V744.71Z" transform="translate(-422.753 -246.877)" fill="#225b6e" opacity="0.1"/>
    <rect id="Rectangle_17377" data-name="Rectangle 17377" width="14.48" height="0.322" transform="translate(255.744 476.509)" fill="#225b6e" opacity="0.1"/>
    <rect id="Rectangle_17378" data-name="Rectangle 17378" width="14.48" height="1.233" transform="translate(255.744 477.259)" fill="#225b6e" opacity="0.1"/>
    <rect id="Rectangle_17379" data-name="Rectangle 17379" width="14.48" height="1.982" transform="translate(255.744 482.533)" fill="#225b6e" opacity="0.1"/>
    <path id="Path_31607" data-name="Path 31607" d="M448.588,652.15v1.982H437.263q-.738-.563-1.457-1.157c-.332-.274-.66-.554-1-.826Z" transform="translate(-178.366 -163.594)" fill="#225b6e" opacity="0.1"/>
    <path id="Path_31608" data-name="Path 31608" d="M526.068,712.213v1.98h-1.2q-2.016-.909-3.952-1.983Z" transform="translate(-255.845 -217.634)" fill="#225b6e" opacity="0.1"/>
    <rect id="Rectangle_17380" data-name="Rectangle 17380" width="2.85" height="2.85" transform="translate(295.358 464.31)" fill="#225b6e" opacity="0.1"/>
    <rect id="Rectangle_17381" data-name="Rectangle 17381" width="2.85" height="2.85" transform="translate(233.641 451.029)" fill="#225b6e" opacity="0.1"/>
    <rect id="Rectangle_17382" data-name="Rectangle 17382" width="2.85" height="2.85" transform="translate(233.641 457.65)" fill="#225b6e" opacity="0.1"/>
    <rect id="Rectangle_17383" data-name="Rectangle 17383" width="2.85" height="2.85" transform="translate(233.641 464.271)" fill="#225b6e" opacity="0.1"/>
    <rect id="Rectangle_17384" data-name="Rectangle 17384" width="2.85" height="2.85" transform="translate(233.641 470.891)" fill="#225b6e" opacity="0.1"/>
    <rect id="Rectangle_17385" data-name="Rectangle 17385" width="2.85" height="2.85" transform="translate(233.641 477.511)" fill="#225b6e" opacity="0.1"/>
    <rect id="Rectangle_17386" data-name="Rectangle 17386" width="2.85" height="2.85" transform="translate(233.641 484.132)" fill="#225b6e" opacity="0.1"/>
    <rect id="Rectangle_17387" data-name="Rectangle 17387" width="2.85" height="2.85" transform="translate(306.239 464.31)" fill="#225b6e" opacity="0.1"/>
    <rect id="Rectangle_17388" data-name="Rectangle 17388" width="2.85" height="2.85" transform="translate(295.358 471.341)" fill="#225b6e" opacity="0.1"/>
    <rect id="Rectangle_17389" data-name="Rectangle 17389" width="2.85" height="2.85" transform="translate(306.239 471.341)" fill="#225b6e" opacity="0.1"/>
    <rect id="Rectangle_17390" data-name="Rectangle 17390" width="2.85" height="2.85" transform="translate(295.358 478.37)" fill="#225b6e" opacity="0.1"/>
    <rect id="Rectangle_17391" data-name="Rectangle 17391" width="2.85" height="2.85" transform="translate(306.239 478.37)" fill="#225b6e" opacity="0.1"/>
    <rect id="Rectangle_17392" data-name="Rectangle 17392" width="2.85" height="2.85" transform="translate(295.358 485.401)" fill="#225b6e" opacity="0.1"/>
    <rect id="Rectangle_17393" data-name="Rectangle 17393" width="2.85" height="2.85" transform="translate(306.239 485.401)" fill="#225b6e" opacity="0.1"/>
    <rect id="Rectangle_17394" data-name="Rectangle 17394" width="2.85" height="2.85" transform="translate(295.358 492.432)" fill="#225b6e" opacity="0.1"/>
    <rect id="Rectangle_17395" data-name="Rectangle 17395" width="2.85" height="2.85" transform="translate(306.239 492.432)" fill="#225b6e" opacity="0.1"/>
    <path id="Path_31609" data-name="Path 31609" d="M775.83,704.168V702.33h2.849v1.577Z" transform="translate(-480.472 -202.868)" fill="#225b6e" opacity="0.1"/>
    <path id="Path_31610" data-name="Path 31610" d="M65.24,357v1.631h9.755V357Zm.972,1.528h-.8V357.1h.8Zm.971,0h-.8V357.1h.8Zm.969,0h-.8V357.1h.8Zm.971,0h-.8V357.1h.8Zm.97,0h-.8V357.1h.8Zm.971,0h-.8V357.1h.8Zm.971,0h-.8V357.1h.8Zm.97,0h-.8V357.1h.8Zm.97,0h-.8V357.1h.8Zm.97,0h-.8V357.1h.8Z" transform="translate(154.164 101.975)" fill="#225b6e" opacity="0.1"/>
    <path id="Path_31611" data-name="Path 31611" d="M65.24,404.34v1.631h9.755V404.34Zm.972,1.527h-.8v-1.424h.8Zm.971,0h-.8v-1.424h.8Zm.969,0h-.8v-1.424h.8Zm.971,0h-.8v-1.424h.8Zm.97,0h-.8v-1.424h.8Zm.971,0h-.8v-1.424h.8Zm.971,0h-.8v-1.424h.8Zm.97,0h-.8v-1.424h.8Zm.97,0h-.8v-1.424h.8Zm.97,0h-.8v-1.424h.8Z" transform="translate(154.164 59.379)" fill="#225b6e" opacity="0.1"/>
    <path id="Path_31612" data-name="Path 31612" d="M65.24,451.7v1.634h9.755V451.7Zm.972,1.527h-.8V451.8h.8Zm.971,0h-.8V451.8h.8Zm.969,0h-.8V451.8h.8Zm.971,0h-.8V451.8h.8Zm.97,0h-.8V451.8h.8Zm.971,0h-.8V451.8h.8Zm.971,0h-.8V451.8h.8Zm.97,0h-.8V451.8h.8Zm.97,0h-.8V451.8h.8Zm.97,0h-.8V451.8h.8Z" transform="translate(154.164 16.766)" fill="#225b6e" opacity="0.1"/>
    <path id="Path_31613" data-name="Path 31613" d="M65.24,499.06v1.629h9.755V499.06Zm.972,1.527h-.8v-1.426h.8Zm.971,0h-.8v-1.426h.8Zm.969,0h-.8v-1.426h.8Zm.971,0h-.8v-1.426h.8Zm.97,0h-.8v-1.426h.8Zm.971,0h-.8v-1.426h.8Zm.971,0h-.8v-1.426h.8Zm.97,0h-.8v-1.426h.8Zm.97,0h-.8v-1.426h.8Zm.97,0h-.8v-1.426h.8Z" transform="translate(154.164 -25.847)" fill="#225b6e" opacity="0.1"/>
    <path id="Path_31614" data-name="Path 31614" d="M65.66,546.41c.039.153.083.307.129.458v-.356h.8v1.425h-.429c.013.033.026.069.039.1h9.172V546.41Zm1.9,1.527h-.8v-1.425h.8Zm.969,0h-.8v-1.425h.8Zm.971,0h-.8v-1.425h.8Zm.97,0h-.8v-1.425h.8Zm.971,0h-.8v-1.425h.8Zm.971,0h-.8v-1.425h.8Zm.97,0h-.8v-1.425h.8Zm.97,0h-.8v-1.425h.8Zm.97,0h-.8v-1.425h.8Z" transform="translate(153.786 -68.452)" fill="#225b6e" opacity="0.1"/>
    <path id="Path_31615" data-name="Path 31615" d="M88.26,593.77c.025.032.049.068.075.1h.53v.685c.057.068.113.136.171.2v-.889h.8v1.43h-.325c.032.033.063.068.1.1h6.1V593.77Zm2.547,1.526H90v-1.424h.8Zm.971,0h-.8v-1.424h.8Zm.971,0h-.8v-1.424h.8Zm.97,0h-.8v-1.424h.8Zm.97,0h-.8v-1.424h.8Zm.97,0h-.8v-1.424h.8Z" transform="translate(133.451 -111.065)" fill="#225b6e" opacity="0.1"/>
    <path id="Path_31616" data-name="Path 31616" d="M141.65,641.12c.091.052.184.1.279.152v-.05h.8v.451l.17.079v-.53h.8v.867a.251.251,0,0,0,.048.018v-.987Z" transform="translate(85.412 -153.669)" fill="#225b6e" opacity="0.1"/>
    <path id="Path_31617" data-name="Path 31617" d="M258.256,257.791Zm-6.174,29.581Zm-6.441-15.051c.019.064.035.128.053.191h0C245.678,272.449,245.661,272.385,245.641,272.32Zm12.615-14.533ZM197.72,242.78v.428H202.2v-.428Zm54.362,44.591Zm-6.441-15.051c.019.064.035.128.053.191h0C245.678,272.449,245.661,272.385,245.641,272.32Zm12.615-14.533Zm-6.174,29.581Zm-6.441-15.048c.019.064.035.128.053.191h0C245.678,272.449,245.661,272.385,245.641,272.32Z" transform="translate(34.962 204.747)" fill="#225b6e" opacity="0.1"/>
    <path id="Path_31618" data-name="Path 31618" d="M316.99,240.223s-.395-.055-.395-.63a9.012,9.012,0,0,0-.283-1.65h0a6.65,6.65,0,0,0-.582-2.168,7.413,7.413,0,0,1-.772-2.039,4.11,4.11,0,0,0-.225-1.149,9.757,9.757,0,0,1-.658-1.412c-.3-.711-1.56-1.2-1.56-1.2s-2.274-1.319-2.919-1.749h0a.987.987,0,0,1-.163-.123c-.112-.147-.6-.15-.6-.15a9.858,9.858,0,0,1-.116-1.029.784.784,0,0,0-.005-.108,3.468,3.468,0,0,0,1.524-1.886c.012-.038.022-.078.033-.116a.326.326,0,0,0,.2-.176,3.683,3.683,0,0,1,.131-.4,1.51,1.51,0,0,1,.371-.326,1.4,1.4,0,0,0,.386-1.142c-.01-.336-.064-.675-.043-1.008l.006-.084c.006-.05.013-.1.022-.148.049-.249.156-.483.216-.73a.939.939,0,0,0-.074-.737,1.28,1.28,0,0,0-1.009-.406c-.426-.036-.807.011-1.079-.343a3.848,3.848,0,0,0-.429-.518c-.056-.052-.6-.385-.6-.407a2.437,2.437,0,0,0-1.7-.13c-.283.082-.549.216-.836.284-.618.146-1.33-.012-1.855.342a2.181,2.181,0,0,0-.632.83q-.2.384-.407.767a4.965,4.965,0,0,0-.54,1.312,2.08,2.08,0,0,0-.036.307h0v.163a.539.539,0,0,0,.006.1c.006.031.005.041.008.062s.008.068.014.1.018.088.03.132c.005.019.012.037.018.055.01.034.022.067.035.1.007.017.014.035.022.052a.941.941,0,0,0,.051.1c.008.014.014.027.022.04a1.329,1.329,0,0,0,.092.134c.214.268.53.438.764.689v.112a3.431,3.431,0,0,0,1.562,2.8c0,.038.005.077.007.115a5.732,5.732,0,0,1-.011.893.421.421,0,0,0-.333-.148.48.48,0,0,0-.128.011l-.009-.007h0v.009c-.22.054-.492.284-.752.936,0,0-.79.89-1.391.853a6.38,6.38,0,0,0-2.124.926,5.124,5.124,0,0,0-1.8,1.946,13.718,13.718,0,0,1-.639,1.632l-1.836,3.784h0l-.339,3a13.93,13.93,0,0,1,.15,1.538,14.813,14.813,0,0,0,.771,2.039s2.669,4.69,3.759,4.93l.078-.055a.64.64,0,0,0,.147.055l.225-.158a2.448,2.448,0,0,1-.017.529,13.945,13.945,0,0,0,.319,4.077c.263.592.169,8.359.169,8.359l-.037.686a.29.29,0,0,0,.009.06l-.009.162.027.014a1.93,1.93,0,0,1-.027.652,7.255,7.255,0,0,0-.132,1.151s-.751,4.8-.395,5.763.658,2.021.658,2.021.376,1.2.018,1.408-1.375.55-1.166,1.051c.19.463.913,1.7,1.02,1.885l-.009.1-.147,1.6a2,2,0,0,0,.169.609,1.05,1.05,0,0,0,1.071.669c.1-.007.216-.019.329-.034a14.208,14.208,0,0,0,2.435-.633.994.994,0,0,1-.19-.157h0a.55.55,0,0,1-.167-.4,11.739,11.739,0,0,0-.664-2.017c-.021-.049-.032-.077-.032-.077s1.241-1.3,1.034-2.447c0,0-1.373-.8-.921-1.242a14,14,0,0,0,1.26-1.7s.037-4.726,0-5.431a5.843,5.843,0,0,1,.069-1.466c.015-.073.033-.144.052-.214a13.084,13.084,0,0,0,1.888.143c.23,0,.465,0,.7-.014q0,.1.009.216c.052,1.171.149,3.223.229,3.986.112,1.093.733,4.04.733,4.04s-1.184.76.206,2.632a2.538,2.538,0,0,1-.092.777h0a8.488,8.488,0,0,0-.238.978,1.724,1.724,0,0,0,.012.895c.225.443,1.579.407,1.579.407h0l.033-.006a1.939,1.939,0,0,1,1.432.432c.514.413,2.466.232,3.522.1.414-.052.691-.1.691-.1a.4.4,0,0,0,.014-.144h0c-.011-.26-.215-.829-1.594-1.337,0,0-1.3-.872-1.279-1.632h-.177a1.414,1.414,0,0,1,.179,0s-.508-1.854-.3-2-.414-2.2-.414-2.2-.356-3.448-.375-3.689a2.106,2.106,0,0,1,.093-.611l-.093-1.89s-.018-.628,0-.833a4.156,4.156,0,0,0-.043-.53c-.009-.07-.018-.143-.028-.215.486-.123.8-.238.8-.238l-.056-6.58a10.524,10.524,0,0,0,.487-3.809c0-.8-.036-1.4-.036-1.4l.564-.921s.13-1.1-.076-1.344a.231.231,0,0,1,.025-.316,1.048,1.048,0,0,1,.123-.084s-.006-.009-.013-.022a1,1,0,0,1,.125-.089s-.2-.311-.021-.442c.168.114.319.2.433.271-.008.073-.016.115-.016.115l.048-.1.177.1a13.4,13.4,0,0,0,.865-2.021,5.893,5.893,0,0,1,.6-1.353,1.354,1.354,0,0,1,.414-.815c.339-.241.263-1.983.263-1.983a4.273,4.273,0,0,1,.32-1.279C317.421,240.723,316.99,240.223,316.99,240.223Zm-16.914-.773.017.42-.172-.278Z" transform="translate(-53.126 226.9)" fill="url(#linear-gradient)"/>
    <path id="Path_31619" data-name="Path 31619" d="M465.854,490.049l-.216.922s-1.734-.885-2.047-2.01a1.272,1.272,0,0,1,.523-1.552l1.616.685Z" transform="translate(-204.199 -15.365)" fill="#fff"/>
    <path id="Path_31620" data-name="Path 31620" d="M465.854,490.049l-.216.922s-1.734-.885-2.047-2.01a1.272,1.272,0,0,1,.523-1.552l1.616.685Z" transform="translate(-204.199 -15.365)" opacity="0.1"/>
    <path id="Path_31621" data-name="Path 31621" d="M354.493,794.071a12.46,12.46,0,0,1-2.706.663,1.03,1.03,0,0,1-1.051-.665,2.015,2.015,0,0,1-.165-.606l.143-1.589.076-.846,2.342-.608.332,1.014.031.077a11.742,11.742,0,0,1,.651,2,.547.547,0,0,0,.164.4A.954.954,0,0,0,354.493,794.071Z" transform="translate(-102.569 -288.006)" fill="#fff"/>
    <path id="Path_31622" data-name="Path 31622" d="M434.374,792.319a.4.4,0,0,1-.014.143s-3.43.572-4.131,0a1.858,1.858,0,0,0-1.443-.423s-1.327.036-1.548-.4a1.74,1.74,0,0,1-.011-.89,8.482,8.482,0,0,1,.233-.973l.053-.042.316-.254,3.7-.109h.028c-.018.756,1.255,1.623,1.255,1.623C434.158,791.494,434.358,792.06,434.374,792.319Z" transform="translate(-171.496 -287.061)" fill="#fff"/>
    <path id="Path_31623" data-name="Path 31623" d="M434.379,804.69a.409.409,0,0,1-.015.143s-3.429.572-4.13,0a1.858,1.858,0,0,0-1.442-.423s-1.328.036-1.548-.4a1.738,1.738,0,0,1-.012-.89,3.3,3.3,0,0,1,1.635.482,3.629,3.629,0,0,0,1.789.959C431.044,804.586,433.376,804.66,434.379,804.69Z" transform="translate(-171.501 -299.433)" opacity="0.1"/>
    <path id="Path_31624" data-name="Path 31624" d="M355.986,825.464a12.46,12.46,0,0,1-2.706.663,1.027,1.027,0,0,1-1.05-.667,2.178,2.178,0,0,0,1.272.149,11.342,11.342,0,0,1,2.305-.3A.987.987,0,0,0,355.986,825.464Z" transform="translate(-104.062 -319.399)" opacity="0.1"/>
    <path id="Path_31625" data-name="Path 31625" d="M389.513,299.014c-1.323-.514-3.025-2.213-2.6-3.007a1.776,1.776,0,0,0,.165-.637,5.818,5.818,0,0,0,.012-.9,12.355,12.355,0,0,0-.177-1.467s4.13.093,3.89.7a2.274,2.274,0,0,0-.062.835c.019.347.069.739.121,1.07.072.455.144.8.144.8s-.253.354-.4.373S391.412,299.746,389.513,299.014Z" transform="translate(-135.21 159.56)" fill="#cf6f80"/>
    <path id="Path_31626" data-name="Path 31626" d="M354.751,791.511l-.031.034c-1.235-1.493-2.728.368-2.728.368l-.022-.039.076-.846,2.342-.608.332,1.014Z" transform="translate(-103.828 -288.006)" opacity="0.1"/>
    <path id="Path_31627" data-name="Path 31627" d="M434.111,789.439a2.372,2.372,0,0,0-1.383.406c-.481.425-2.806.092-2.706,0a.33.33,0,0,0,.052-.152l.316-.254,3.7-.109C434.1,789.4,434.111,789.439,434.111,789.439Z" transform="translate(-174.055 -287.025)" opacity="0.1"/>
    <path id="Path_31628" data-name="Path 31628" d="M347.129,655.64a2.786,2.786,0,0,0-.152.514,5.885,5.885,0,0,0-.069,1.459c.037.7,0,5.4,0,5.4a14.387,14.387,0,0,1-1.235,1.7c-.442.442.9,1.236.9,1.236.2,1.143-1.014,2.433-1.014,2.433-1.235-1.493-2.728.369-2.728.369s-.812-1.4-1.014-1.9.793-.848,1.143-1.051-.017-1.4-.017-1.4-.3-1.051-.646-2.01.387-5.734.387-5.734a7.4,7.4,0,0,1,.129-1.144,1.913,1.913,0,0,0,.027-.649c-.006-.073-.013-.134-.018-.175s-.009-.06-.009-.06l.014-.024.5-.934S347.37,655.051,347.129,655.64Z" transform="translate(-94.67 -164.952)" fill="#225b6e"/>
    <path id="Path_31629" data-name="Path 31629" d="M424.386,676.056a2.393,2.393,0,0,0-1.383.4c-.481.42-2.806.092-2.706,0s.092-.775.092-.775c-1.364-1.862-.2-2.618-.2-2.618s-.609-2.932-.72-4.019c-.077-.76-.172-2.8-.224-3.967-.022-.5-.035-.846-.035-.846l1.115-.224.143-.029,2.688-.539s.074.5.124.911a4.261,4.261,0,0,1,.042.528c-.018.2,0,.828,0,.828l.091,1.881a2.137,2.137,0,0,0-.091.608c.018.24.368,3.669.368,3.669s.608,2.047.4,2.194S424.386,676.056,424.386,676.056Z" transform="translate(-164.329 -173.752)" fill="#225b6e"/>
    <path id="Path_31630" data-name="Path 31630" d="M391.4,293.7a2.274,2.274,0,0,0-.062.835,3.433,3.433,0,0,1-3.65-.068A12.353,12.353,0,0,0,387.51,293S391.64,293.091,391.4,293.7Z" transform="translate(-135.806 159.56)" opacity="0.1"/>
    <path id="Path_31631" data-name="Path 31631" d="M380.687,247.11a3.394,3.394,0,0,1-.168,1.063,3.43,3.43,0,0,1-6.689-.981v-.082a3.429,3.429,0,1,1,6.859,0Z" transform="translate(-123.498 203.937)" fill="#cf6f80"/>
    <path id="Path_31632" data-name="Path 31632" d="M389.513,320.284c-1.323-.514-3.025-2.213-2.6-3.007a1.776,1.776,0,0,0,.165-.637l1.811,1.488,1.121.919.852-2.169c.072.455.144.8.144.8s-.253.354-.4.373S391.412,321.017,389.513,320.284Z" transform="translate(-135.21 138.29)" opacity="0.1"/>
    <path id="Path_31633" data-name="Path 31633" d="M335.8,266.8l-1.512,25.407-1.972.129-5.108-14.732.838-17.49.176-3.7,2.271,1.865,1.122.919.877-2.232,1.631,1.421Z" transform="translate(-76.815 198.35)" fill="#225b6e"/>
    <path id="Path_31634" data-name="Path 31634" d="M356.315,655.711a2.786,2.786,0,0,0-.152.514,14.534,14.534,0,0,1-4.135-1.292L352,654.92l.009-.161.005-.084.5-.934S356.555,655.123,356.315,655.711Z" transform="translate(-103.855 -165.024)" opacity="0.1"/>
    <path id="Path_31635" data-name="Path 31635" d="M420.294,670.1a10.149,10.149,0,0,1-1.108.126c-.022-.5-.035-.846-.035-.846l1.115-.224Z" transform="translate(-164.275 -178.899)" opacity="0.1"/>
    <path id="Path_31636" data-name="Path 31636" d="M434.512,664.4a7.781,7.781,0,0,1-2.8.264l-.014-.635,2.688-.539S434.462,663.986,434.512,664.4Z" transform="translate(-175.567 -173.797)" opacity="0.1"/>
    <path id="Path_31637" data-name="Path 31637" d="M315,351.222a13.745,13.745,0,0,1-7.873-1.31l.036-.682s.093-7.726-.165-8.319a14.085,14.085,0,0,1-.314-4.057c.146-.461-.534-7.375-.534-7.375l-.11-2.806L302,325.039l1.8-3.76a13.568,13.568,0,0,0,.627-1.624,5.077,5.077,0,0,1,1.77-1.935,6.23,6.23,0,0,1,2.084-.922c.59.036,1.364-.848,1.364-.848.571-1.456,1.088-.8,1.088-.8a1.3,1.3,0,0,1-.028.215c-.2,1.6,3.241,6.65,3.29,6.739h0l.328,7.984.332,10.1Z" transform="translate(-58.867 139.762)" opacity="0.1"/>
    <path id="Path_31638" data-name="Path 31638" d="M313.868,351.168a13.749,13.749,0,0,1-7.874-1.31l.037-.682s.093-7.726-.166-8.319a14.013,14.013,0,0,1-.313-4.057c.147-.461-.534-7.375-.534-7.375l-.111-2.806-4.037-1.641,1.8-3.76a13.778,13.778,0,0,0,.627-1.624,5.069,5.069,0,0,1,1.77-1.935,6.232,6.232,0,0,1,2.083-.922c.589.036,1.364-.848,1.364-.848.572-1.456,1.2-.8,1.2-.8,0,.069-.06.1-.028.215a67.264,67.264,0,0,0,3.18,6.739h0l.332,7.984.332,10.1Z" transform="translate(-57.85 139.816)" fill="#fff"/>
    <path id="Path_31639" data-name="Path 31639" d="M385.526,324.359a28.064,28.064,0,0,1-2.783-2.857v-.608c-.085-.2-.591-.078-1,.062l.176-3.7.2.166A65.812,65.812,0,0,0,385.526,324.359Z" transform="translate(-130.615 137.732)" opacity="0.1"/>
    <path id="Path_31640" data-name="Path 31640" d="M386.627,322.149a27.974,27.974,0,0,1-2.784-2.857v-.608c-.085-.2-.591-.078-1,.062l.177-3.7.2.166A66.314,66.314,0,0,0,386.627,322.149Z" transform="translate(-131.604 139.72)" fill="#fff"/>
    <path id="Path_31641" data-name="Path 31641" d="M351.086,516.245c.055,0,2.857-.295,2.857-.295s1.7,3.336,1.586,4.148-.313,1.53-1,1.4a30.288,30.288,0,0,0-3.673.1Z" transform="translate(-102.83 -41.044)" opacity="0.1"/>
    <path id="Path_31642" data-name="Path 31642" d="M349.976,514.035c.055,0,2.857-.295,2.857-.295s1.7,3.338,1.586,4.148-.314,1.53-1,1.4a30.3,30.3,0,0,0-3.673.1Z" transform="translate(-101.831 -39.056)" fill="#fff"/>
    <path id="Path_31643" data-name="Path 31643" d="M359.312,501.05s2.572,1.382,2.627,1.8-1.309-.184-1.6-.258a3.672,3.672,0,0,0-.59-.092l-1.965.053Z" transform="translate(-109.056 -27.638)" fill="#cf6f80"/>
    <circle id="Ellipse_123" data-name="Ellipse 123" cx="0.271" cy="0.271" r="0.271" transform="translate(253.923 461.722)" opacity="0.1"/>
    <circle id="Ellipse_124" data-name="Ellipse 124" cx="0.271" cy="0.271" r="0.271" transform="translate(253.923 461.612)" fill="#3f3d56"/>
    <circle id="Ellipse_125" data-name="Ellipse 125" cx="0.271" cy="0.271" r="0.271" transform="translate(254.421 473.436)" opacity="0.1"/>
    <circle id="Ellipse_126" data-name="Ellipse 126" cx="0.271" cy="0.271" r="0.271" transform="translate(254.421 473.325)" fill="#3f3d56"/>
    <circle id="Ellipse_127" data-name="Ellipse 127" cx="0.271" cy="0.271" r="0.271" transform="translate(254.192 467.579)" opacity="0.1"/>
    <circle id="Ellipse_128" data-name="Ellipse 128" cx="0.271" cy="0.271" r="0.271" transform="translate(254.192 467.469)" fill="#3f3d56"/>
    <path id="Path_31644" data-name="Path 31644" d="M431.949,338.517s.184.277,0,.406.018.442.018.442-.46.27-.258.512.074,1.338.074,1.338l-.553.916s.033.59.035,1.388a10.667,10.667,0,0,1-.478,3.793l.056,6.546a8.91,8.91,0,0,1-3.559.492l-.241-10.5s.351-5.956.48-7.1a11.9,11.9,0,0,0,.092-1.789,19.986,19.986,0,0,0-.241-2.618s-.2-3.6-.22-4.59c-.009-.476.016-1.865.044-3.186.031-1.444.066-2.806.066-2.806l-.366-2.895s.366-.037.476.11a1.056,1.056,0,0,0,.16.123h0c.631.427,2.862,1.74,2.862,1.74s1.235.491,1.53,1.195a10.41,10.41,0,0,0,.644,1.4,4.332,4.332,0,0,1,.221,1.143,7.4,7.4,0,0,0,.757,2.028,6.745,6.745,0,0,1,.574,2.162l-2.932,2.305s-.258,3.835-.313,3.983S431.949,338.517,431.949,338.517Z" transform="translate(-171.249 136.294)" fill="#fff"/>
    <path id="Path_31645" data-name="Path 31645" d="M432,338.23s.183.277,0,.406.017.442.017.442-.457.273-.257.515.074,1.338.074,1.338l-.553.916s.033.59.036,1.388a10.667,10.667,0,0,1-.478,3.793l.055,6.546a8.925,8.925,0,0,1-3.56.492l-.24-10.5s.351-5.956.48-7.1a11.787,11.787,0,0,0,.091-1.789,20.107,20.107,0,0,0-.24-2.618s-.2-3.6-.221-4.59c-.009-.476.017-1.865.044-3.186.031-1.444.066-2.806.066-2.806l-.483-2.934s.483,0,.594.149a.952.952,0,0,0,.16.123h0c.631.427,2.863,1.74,2.863,1.74s1.234.491,1.529,1.195a10.247,10.247,0,0,0,.645,1.4,4.28,4.28,0,0,1,.221,1.143,7.4,7.4,0,0,0,.757,2.028,6.708,6.708,0,0,1,.571,2.158l-2.932,2.305s-.258,3.835-.314,3.983S432,338.23,432,338.23Z" transform="translate(-171.186 136.58)" fill="#fff"/>
    <path id="Path_31646" data-name="Path 31646" d="M429.485,324.3l.265.772-1.393,1.4c.031-1.443.066-2.806.066-2.806l-.483-2.934s.483,0,.594.149a.913.913,0,0,0,.16.122h0l1.185,3.418Z" transform="translate(-172.184 134.61)" opacity="0.1"/>
    <path id="Path_31647" data-name="Path 31647" d="M428.375,322.085l.266.772-1.393,1.4c.031-1.444.066-2.806.066-2.806l-.484-2.934s.484,0,.594.149a1,1,0,0,0,.16.123h0l1.186,3.417Z" transform="translate(-171.186 136.598)" fill="#fff"/>
    <path id="Path_31648" data-name="Path 31648" d="M380.688,247.11a3.4,3.4,0,0,1-.168,1.063.143.143,0,0,1-.108-.027,4.425,4.425,0,0,0-1.016-2.47,2.6,2.6,0,0,0-.551-.571,1.079,1.079,0,0,0-.748-.211c-.3.041-.566.246-.87.272-.4.033-.76-.245-1.158-.259a1.137,1.137,0,0,0-.851.395,2.334,2.334,0,0,0-.456.846,4.949,4.949,0,0,0-.255,1.459c-.005.281-.032.632-.293.735a1.5,1.5,0,0,0-.378-1.144l-.006-.006v-.082a3.429,3.429,0,1,1,6.859,0Z" transform="translate(-123.498 203.937)" opacity="0.1"/>
    <path id="Path_31649" data-name="Path 31649" d="M369.275,221.554a2.361,2.361,0,0,0-1.666-.13c-.278.082-.539.215-.821.283-.6.145-1.3-.012-1.819.34a2.176,2.176,0,0,0-.619.825l-.4.764a4.956,4.956,0,0,0-.53,1.3,1.664,1.664,0,0,0,.256,1.345c.212.27.526.439.757.693a1.5,1.5,0,0,1,.377,1.143c.262-.1.287-.453.293-.734a4.949,4.949,0,0,1,.255-1.459,2.326,2.326,0,0,1,.456-.846,1.14,1.14,0,0,1,.851-.395c.4.014.761.291,1.158.258.3-.025.567-.231.87-.271a1.074,1.074,0,0,1,.748.211,2.568,2.568,0,0,1,.55.571,4.413,4.413,0,0,1,1.017,2.47c.113.083.277-.025.333-.153a3.662,3.662,0,0,1,.129-.4,1.479,1.479,0,0,1,.363-.323,1.418,1.418,0,0,0,.379-1.136,5.657,5.657,0,0,1-.014-1.235c.047-.249.153-.481.211-.727a.95.95,0,0,0-.072-.733,1.234,1.234,0,0,0-.99-.4c-.418-.036-.792.01-1.058-.342a3.838,3.838,0,0,0-.421-.515C369.811,221.906,369.275,221.576,369.275,221.554Z" transform="translate(-114.094 224.048)" fill="#512e4e"/>
    <path id="Path_31650" data-name="Path 31650" d="M301.139,417.066l-1.047-1.936-.332,2.988a13.849,13.849,0,0,1,.147,1.53,14.717,14.717,0,0,0,.756,2.028s2.619,4.664,3.688,4.905L307.964,424l-.958-1.217s-.332-.129-.415,0c0,0-1.779-3.061-1.963-3.282a1.106,1.106,0,0,1-.148-.663s-.277-.295-.184-.571-.534-1.236-.534-1.236l.571-.534Z" transform="translate(-56.851 49.671)" opacity="0.1"/>
    <path id="Path_31651" data-name="Path 31651" d="M298.158,412.93l-.277.22-.332,2.988a13.85,13.85,0,0,1,.147,1.53,14.71,14.71,0,0,0,.757,2.028s2.618,4.664,3.687,4.905l3.614-2.582L304.8,420.8s-.332-.129-.415,0c0,0-1.779-3.061-1.963-3.282a1.1,1.1,0,0,1-.147-.664s-.277-.295-.184-.571-.535-1.236-.535-1.236l.571-.534Z" transform="translate(-54.863 51.65)" fill="#fff"/>
    <path id="Path_31652" data-name="Path 31652" d="M456.118,513.685c.2.244.074,1.337.074,1.337l-.553.916s.033.591.035,1.388l-.93.291a.552.552,0,0,1-.717-.544l.16-5.173,2.17.83c-.184.128.018.443.018.443S455.916,513.442,456.118,513.685Z" transform="translate(-195.657 -37.4)" opacity="0.1"/>
    <path id="Path_31653" data-name="Path 31653" d="M457.219,512.584c.2.244.074,1.338.074,1.338l-.553.916s.033.59.036,1.388l-.947.3a.541.541,0,0,1-.7-.533l.161-5.189,2.171.83c-.185.128.017.442.017.442S457.019,512.341,457.219,512.584Z" transform="translate(-196.647 -36.411)" fill="#fff"/>
    <path id="Path_31654" data-name="Path 31654" d="M467.586,496.755s-.147.941-.516,1-.534,1.522-.9,1.47-.124-1.364-.111-1.619-.4-1.309-.091-1.548,1.29,0,1.29,0Z" transform="translate(-206.295 -23.047)" fill="#cf6f80"/>
    <path id="Path_31655" data-name="Path 31655" d="M464.974,419.093l.7-1.4a9.11,9.11,0,0,1,.277,1.641c0,.571.387.627.387.627s.424.5.2.866a4.2,4.2,0,0,0-.314,1.273s.073,1.733-.259,1.972a1.342,1.342,0,0,0-.4.812,5.879,5.879,0,0,0-.59,1.346,13.368,13.368,0,0,1-.848,2.01,2.842,2.842,0,0,0-2.047-3.116s-.019-.739.165-.941.472-.295.292-1.318a11.952,11.952,0,0,1-.052-2.492,15.691,15.691,0,0,1,.553-1.777Z" transform="translate(-202.898 47.367)" opacity="0.1"/>
    <path id="Path_31656" data-name="Path 31656" d="M467.155,415.69l.607.2a9.079,9.079,0,0,1,.278,1.641c0,.571.387.627.387.627s.424.5.2.866a4.192,4.192,0,0,0-.313,1.273s.073,1.733-.259,1.972a1.361,1.361,0,0,0-.406.812,5.883,5.883,0,0,0-.589,1.346,13.362,13.362,0,0,1-.849,2.01,2.841,2.841,0,0,0-2.047-3.116s-.018-.739.166-.941.472-.295.292-1.318a11.952,11.952,0,0,1-.052-2.492,15.69,15.69,0,0,1,.553-1.777Z" transform="translate(-204.779 49.167)" fill="#fff"/>
    <path id="Path_31657" data-name="Path 31657" d="M360.15,775.621s.968-.608,1.6-.166S360.15,775.621,360.15,775.621Z" transform="translate(-111.189 -274.395)" opacity="0.1"/>
    <path id="Path_31658" data-name="Path 31658" d="M435.21,759.741a1.96,1.96,0,0,1,1.577.664C437.506,761.181,435.21,759.741,435.21,759.741Z" transform="translate(-178.726 -260.397)" opacity="0.1"/>
    <g id="Group_11177" data-name="Group 11177" transform="translate(249.286 447.579)" opacity="0.1">
      <path id="Path_31659" data-name="Path 31659" d="M384.7,254.822a1.487,1.487,0,0,0-.364.324,3.667,3.667,0,0,0-.128.4c-.056.13-.22.237-.333.154a4.432,4.432,0,0,0-1.017-2.471,2.568,2.568,0,0,0-.55-.571,1.077,1.077,0,0,0-.749-.211c-.3.041-.565.246-.869.271-.4.034-.761-.244-1.159-.258a1.135,1.135,0,0,0-.85.4,2.322,2.322,0,0,0-.456.845,4.956,4.956,0,0,0-.255,1.459c-.006.28-.032.628-.291.733a1.368,1.368,0,0,1,0,.223c.261-.1.287-.453.293-.734a4.949,4.949,0,0,1,.255-1.459,2.327,2.327,0,0,1,.456-.846,1.138,1.138,0,0,1,.85-.395c.4.014.762.291,1.159.258.3-.025.567-.231.869-.271a1.077,1.077,0,0,1,.749.211,2.568,2.568,0,0,1,.55.571,4.42,4.42,0,0,1,1.017,2.47c.113.083.277-.025.333-.153a3.888,3.888,0,0,1,.128-.4,1.483,1.483,0,0,1,.364-.323,1.419,1.419,0,0,0,.379-1.136v-.038A1.316,1.316,0,0,1,384.7,254.822Z" transform="translate(-376.247 -251.526)"/>
      <path id="Path_31660" data-name="Path 31660" d="M364.438,261.892c-.231-.254-.545-.423-.757-.692a1.467,1.467,0,0,1-.292-.821,1.544,1.544,0,0,0,.292,1.041c.211.27.526.439.757.693a1.5,1.5,0,0,1,.378.894,1.5,1.5,0,0,0-.378-1.116Z" transform="translate(-363.385 -258.668)"/>
      <path id="Path_31661" data-name="Path 31661" d="M451.261,243.5c-.059.246-.164.479-.212.727a2.316,2.316,0,0,0-.031.5,1.946,1.946,0,0,1,.031-.285c.048-.249.153-.481.212-.727a1.233,1.233,0,0,0,.033-.415A1.4,1.4,0,0,1,451.261,243.5Z" transform="translate(-442.232 -243.3)"/>
    </g>
    <ellipse id="Ellipse_129" data-name="Ellipse 129" cx="9.766" cy="1.569" rx="9.766" ry="1.569" transform="translate(221.137 502.164)" fill="#225b6e" opacity="0.1"/>
    <rect id="Rectangle_17396" data-name="Rectangle 17396" width="0.628" height="14.149" transform="translate(230.589 473.685)" fill="#535461"/>
    <path id="Path_31662" data-name="Path 31662" d="M145.971,635.89l-.039.637-.056.9-.023.375-.055.9-.024.375-.056.9-.633,10.23a1.734,1.734,0,0,1-1.73,1.626h-3.293a1.733,1.733,0,0,1-1.729-1.626l-.63-10.237-.056-.9-.023-.375-.056-.9-.023-.375-.056-.9-.04-.637a.9.9,0,0,1,.9-.953h6.736a.9.9,0,0,1,.886.96Z" transform="translate(89.195 -148.1)" fill="#3f3d56"/>
    <path id="Path_31663" data-name="Path 31663" d="M99.029,592.24l-.056.9H90.636l-.056-.9Z" transform="translate(136.098 -103.812)" fill="#9d9cb5"/>
    <path id="Path_31664" data-name="Path 31664" d="M99.661,604.95l-.055.9H91.426l-.056-.9Z" transform="translate(135.387 -115.248)" fill="#9d9cb5"/>
    <path id="Path_31665" data-name="Path 31665" d="M100.292,617.68l-.055.9H92.216l-.056-.9Z" transform="translate(134.677 -126.702)" fill="#9d9cb5"/>
    <path id="Path_31666" data-name="Path 31666" d="M55.818,531.558A16.339,16.339,0,0,1,61,538.348a16.308,16.308,0,0,1-8.07-2.8,16.314,16.314,0,0,1-5.185-6.788A16.3,16.3,0,0,1,55.818,531.558Z" transform="translate(169.901 -52.571)" fill="#225b6e"/>
    <path id="Path_31667" data-name="Path 31667" d="M47.72,528.76S52.3,531.3,53.767,533.4s7.211,4.943,7.211,4.943" transform="translate(169.928 -52.571)" fill="none" stroke="#535461" stroke-miterlimit="10" stroke-width="2"/>
    <path id="Path_31668" data-name="Path 31668" d="M112.392,489.783a8.9,8.9,0,0,1,2.824,3.694A8.066,8.066,0,0,1,108,488.26,8.874,8.874,0,0,1,112.392,489.783Z" transform="translate(115.69 -16.13)" fill="#225b6e"/>
    <path id="Path_31669" data-name="Path 31669" d="M108,488.26a12.93,12.93,0,0,1,3.29,2.528c.8,1.145,3.926,2.69,3.926,2.69" transform="translate(115.69 -16.13)" fill="none" stroke="#535461" stroke-miterlimit="10" stroke-width="2"/>
    <path id="Path_31670" data-name="Path 31670" d="M183.962,509.487a12.274,12.274,0,0,0-2.772,5.8,11.156,11.156,0,0,0,8.285-9.108A12.284,12.284,0,0,0,183.962,509.487Z" transform="translate(49.835 -32.254)" fill="#225b6e"/>
    <path id="Path_31671" data-name="Path 31671" d="M189.477,506.19s-2.981,2.578-3.738,4.354-4.548,4.754-4.548,4.754" transform="translate(49.835 -32.263)" fill="none" stroke="#535461" stroke-miterlimit="10" stroke-width="2"/>
    <path id="Path_31672" data-name="Path 31672" d="M844.965,290.418s-1.655-8.233-1.021-9.257c0,0,.023-.952-.015-2.166v-.139a3.077,3.077,0,0,0,.348.2,2.814,2.814,0,0,0,1.894.245l-.5-.558a.925.925,0,0,1-.272-.454.951.951,0,0,1,.108-.491,3.411,3.411,0,0,0-.416-3.633c-.775-.772-.963-1.768-1.8-2.473a5.212,5.212,0,0,1-1.271-2,11.276,11.276,0,0,1-.7-1.9c-.12-.512-.168-1.042-.334-1.542a1.964,1.964,0,0,0-.959-1.21,3.624,3.624,0,0,1-.521-.23,2.249,2.249,0,0,1-.48-.564c-.759-1-3.3-.412-4.5-.005a2.533,2.533,0,0,0-.89.493l.011-.018c.009-.015.02-.03.03-.045a1.58,1.58,0,0,0-.337.376,9.006,9.006,0,0,0-.395.9c-.176.356-1.158,1.349-.736,1.749a.356.356,0,0,0,.1.064.867.867,0,0,0,.5.05l-.018.043a2.928,2.928,0,0,0-.217,1.111,3.008,3.008,0,0,0,3.035,2.982,3.064,3.064,0,0,0,.929-.143c.007.038.013.076.02.114a.35.35,0,0,0,.007.045h0l-.053.074-.009-.013-1.574,2.2c-.241.169-1.626,1.172-1.7,1.923-.082.823-.164,1.786-.164,1.786l-.011.206a.62.62,0,0,1-.5.135c-.491-.08-.491,1.8-.491,1.8s-.327.3-.551.04-.818.622-.818.622l-3.718.16h0l-.085.005-.2-.62a.262.262,0,0,0-.328-.167.3.3,0,0,0-.045.019l-.014.008-.026.018-.013.012a.207.207,0,0,0-.02.021l-.012.014-.006.006h0a.253.253,0,0,0-.036.225l.172.532c-.718.144-1.451.551-.853,1.672l-3.033-.56.981.824,5.065,1.045c-.067.12-.023.295.186.54a5.173,5.173,0,0,0,3.207,1.421,5.694,5.694,0,0,0,.65,1.1l-.057,1.055s-1.675,8.044-1.981,8.452a4.767,4.767,0,0,0,.424-.558c-.486,1.653-1.166,3.915-1.344,4.254-.287.541-.552,2.731-.226,2.871a2.75,2.75,0,0,0,.8-.009v.181l-.018,6.874a33.313,33.313,0,0,1-.143,4.618,3.932,3.932,0,0,0-.286,1.245,12.215,12.215,0,0,1-1.617,2.331l-.016.014-.022-.156a3.41,3.41,0,0,1-2.759,1.023s-1.144.744.552.784,3.862-.06,3.862-.06,1.512-2.305,2.779-2v1.747h.388V317.9a1.591,1.591,0,0,0,.691-1.045,1.271,1.271,0,0,0-.453-1.176.752.752,0,0,1-.247-.549l-.014.012a1.054,1.054,0,0,0-.013-.108,10,10,0,0,1,.242-4.14,11.029,11.029,0,0,0,.388-6.084,13.991,13.991,0,0,1-.39-1.524c-.012-.065-.023-.127-.033-.185a7.9,7.9,0,0,1,1,.2,27.94,27.94,0,0,0,5.751.355c.005.058.011.119.018.18a6.56,6.56,0,0,0,.237,1.255,31.971,31.971,0,0,1,.389,4.337,22.944,22.944,0,0,1,.156,4.089c-.1.657-.2,1.318-.258,1.981v.013s-.563,1.6-.975,2.475c-.01.022-.021.044-.031.065a1.3,1.3,0,0,0-.322.071s-.552,1.1-1.1,1.285-.368.783.878.562,3.127-.4,3.127-.4l.081-1.125.383-.479-.1,1.122.408-.08-.054-1.364.626-.784s.757-.674-.368-2v.029c-.012-.019-.023-.039-.036-.058v-.006a2.141,2.141,0,0,1-.063-1.782c.491-1.726.777-3.292.777-3.292s1.1-4.2-.221-6.182h.058a3.339,3.339,0,0,1-.284-.882q-.01-.054-.018-.111a7.233,7.233,0,0,0,2.713-.613S845.353,292,844.965,290.418Zm-12.381-6.946v.02l-.2.01Zm-.688.1a.222.222,0,0,0-.09.043.891.891,0,0,0-.157.412l-.313-.07s-.219-.047-.535-.1l-.149-.15C831.062,283.668,831.489,283.617,831.9,283.567Z" transform="translate(-527.172 185.931)" fill="url(#linear-gradient-2)"/>
    <path id="Path_31673" data-name="Path 31673" d="M971.439,741.73l-.119,1.42.4-.08-.06-1.54Z" transform="translate(-656.369 -238.139)" fill="#1d2366"/>
    <path id="Path_31674" data-name="Path 31674" d="M879.766,658.552a10.151,10.151,0,0,0-.238,4.126c.04.333.077.535.077.535s-.721,1.642-.781,1.7-2.121,1.32-2.121,1.32l-1.44.841s-1.461-.64-.761-.861a1.065,1.065,0,0,0,.378-.258,12.1,12.1,0,0,0,1.583-2.323,3.994,3.994,0,0,1,.281-1.241,33.839,33.839,0,0,0,.14-4.6l.017-6.85v-.893l2.741.02a6.2,6.2,0,0,0,.118.9,13.783,13.783,0,0,0,.382,1.519A11.154,11.154,0,0,1,879.766,658.552Z" transform="translate(-573.82 -161.704)" fill="#ffb0b1"/>
    <path id="Path_31675" data-name="Path 31675" d="M879.606,776.6s-.721,1.642-.781,1.7-2.121,1.32-2.121,1.32l-1.44.841s-1.461-.64-.761-.861a1.065,1.065,0,0,0,.378-.258l.062.438.48-.02,4.109-3.7C879.569,776.4,879.606,776.6,879.606,776.6Z" transform="translate(-573.82 -275.094)" opacity="0.1"/>
    <path id="Path_31676" data-name="Path 31676" d="M856.7,777l-4.132,3.722-.48.02-.1-.7a3.318,3.318,0,0,1-2.706,1.02s-1.121.741.54.781,3.781-.06,3.781-.06,1.481-2.305,2.721-2v1.741h.381v-1.757a1.582,1.582,0,0,0,.675-1.042,1.277,1.277,0,0,0-.442-1.171A.755.755,0,0,1,856.7,777Z" transform="translate(-550.964 -275.93)" fill="#1d2366"/>
    <path id="Path_31677" data-name="Path 31677" d="M990.137,660.023a2.167,2.167,0,0,0,.061,1.776v.006a3.282,3.282,0,0,1,.479,1.17l.016.09-1.88,2.741-1.02.4s-1.641-.56-1.341-.721a1.535,1.535,0,0,0,.327-.535c.4-.867.954-2.467.954-2.467v-.013c.058-.661.15-1.319.253-1.974a23.268,23.268,0,0,0-.153-4.075,32.521,32.521,0,0,0-.381-4.322,6.6,6.6,0,0,1-.234-1.247c-.054-.5-.066-.914-.066-.914s1.08-1.5,3.061.12a2.179,2.179,0,0,1,.414.449c1.368,1.946.267,6.234.267,6.234S990.617,658.3,990.137,660.023Z" transform="translate(-674.686 -161.034)" fill="#ffb0b1"/>
    <path id="Path_31678" data-name="Path 31678" d="M990.723,775.01l-1.88,2.741-1.02.4s-1.641-.56-1.341-.721a1.535,1.535,0,0,0,.327-.535,1.3,1.3,0,0,1,1.054.655l.88-.14a16.981,16.981,0,0,1,1.421-2.42c.261-.139.04-1.041.04-1.041v-.23c.007.008.013.017.021.025v.006a3.281,3.281,0,0,1,.479,1.17Z" transform="translate(-674.713 -272.979)" opacity="0.1"/>
    <path id="Path_31679" data-name="Path 31679" d="M975.78,778.133a1.225,1.225,0,0,0-1.461-.58s-.54,1.1-1.08,1.281-.36.78.861.56,3.061-.4,3.061-.4l.08-1.122,1.241-1.581s.74-.671-.361-1.99v.229s.221.9-.04,1.041a16.933,16.933,0,0,0-1.417,2.421Z" transform="translate(-662.57 -273.501)" fill="#1d2366"/>
    <path id="Path_31680" data-name="Path 31680" d="M902.884,650.05a6.207,6.207,0,0,0,.118.9,12.571,12.571,0,0,0-2.862-.029v-.893Z" transform="translate(-597.058 -161.686)" opacity="0.1"/>
    <path id="Path_31681" data-name="Path 31681" d="M997.382,650.749s-1.6.078-3.516.094c-.054-.5-.066-.914-.066-.914s1.08-1.5,3.061.12a2.18,2.18,0,0,1,.414.449A2.442,2.442,0,0,0,997.382,650.749Z" transform="translate(-681.331 -161.025)" opacity="0.1"/>
    <path id="Path_31682" data-name="Path 31682" d="M904.8,492.959s-7.024.34-9.165-.261-4.263-.08-4.582-.219-.06-2.321.221-2.861,1.82-6,1.82-6l1.481-7.723,1.561-.43.11-.031,2.719-.75,1.992-.55s3.962,15.468,3.622,16.608a2.921,2.921,0,0,0-.058,1.342A3.349,3.349,0,0,0,904.8,492.959Z" transform="translate(-588.753 -3.416)" fill="#1d2366"/>
    <path id="Path_31683" data-name="Path 31683" d="M869.372,439s-1.4,1.5-.341,2.341a1.244,1.244,0,0,0,1.761.08Z" transform="translate(-568.709 28.193)" fill="#c7daf5"/>
    <path id="Path_31684" data-name="Path 31684" d="M869.372,439s-1.4,1.5-.341,2.341a1.244,1.244,0,0,0,1.761.08Z" transform="translate(-568.709 28.193)" opacity="0.1"/>
    <path id="Path_31685" data-name="Path 31685" d="M962.162,315.778s-.164.156-.412.387c-.353.33-.875.812-1.338,1.216-.641.558-1.171.968-.981.618a2.7,2.7,0,0,0,.059-1.529c-.007-.038-.013-.076-.02-.113a10.5,10.5,0,0,0-.31-1.239,21.444,21.444,0,0,1,1.61-1.867c.214-.2.363-.283.372-.143a4.661,4.661,0,0,0,.325,1.04c.005.014.01.027.016.041.116.3.248.609.363.876C962.021,315.474,962.162,315.778,962.162,315.778Z" transform="translate(-650.163 141.531)" fill="#ffb0b1"/>
    <path id="Path_31686" data-name="Path 31686" d="M961.482,314.2a2.975,2.975,0,0,1-1.992,2.281,10.434,10.434,0,0,0-.33-1.352s1.951-2.521,1.981-2.01A4.768,4.768,0,0,0,961.482,314.2Z" transform="translate(-650.163 141.52)" opacity="0.1"/>
    <path id="Path_31687" data-name="Path 31687" d="M926.822,350.806l.253-.356s.167,1.02.783.57.645,3.387.645,3.387l-.66,9.875L923.07,364l.135-4.772.54-2.405,1.336-3.5.795-1.156Z" transform="translate(-617.69 107.868)" opacity="0.1"/>
    <path id="Path_31688" data-name="Path 31688" d="M928.53,354.972l-.6,8.929-.063.946-2.661-.159-.1-.006-2-.12.135-4.773.54-2.405,1.336-3.5.795-1.156.946-1.366.253-.355s.167,1.02.783.57l.013-.009h0C928.5,351.19,928.53,354.972,928.53,354.972Z" transform="translate(-617.717 107.364)" fill="#1d2366"/>
    <path id="Path_31689" data-name="Path 31689" d="M874.985,406.26a.73.73,0,0,1-.721.42c-.481-.081-.48,1.8-.48,1.8s-.32.3-.54.04-.8.62-.8.62l-3.642.16a2.705,2.705,0,0,1,1.3,2.982s5.5-.341,5.683-.861S874.985,406.26,874.985,406.26Z" transform="translate(-568.859 57.652)" fill="#fff"/>
    <path id="Path_31690" data-name="Path 31690" d="M874.985,406.26a.73.73,0,0,1-.721.42c-.481-.081-.48,1.8-.48,1.8s-.32.3-.54.04-.8.62-.8.62l-3.642.16a2.705,2.705,0,0,1,1.3,2.982s5.5-.341,5.683-.861S874.985,406.26,874.985,406.26Z" transform="translate(-568.859 57.652)" opacity="0.03"/>
    <path id="Path_31691" data-name="Path 31691" d="M777.66,389.76l.96.82,7.9,1.661-.98-1Z" transform="translate(-482.119 78.374)" fill="#fff"/>
    <path id="Path_31692" data-name="Path 31692" d="M909.292,348.737a20.211,20.211,0,0,0-.821,2.123c-.262.747-.48,1.4-.48,1.4a37.526,37.526,0,0,1-.771,3.922,11.991,11.991,0,0,0-.119,2.942l-.971,5.782a28.834,28.834,0,0,1-1.12,4.763,8.673,8.673,0,0,1-1.44,2.6c.3-.407,1.939-8.419,1.939-8.419l.541-10.1s.079-.96.159-1.781,1.7-1.941,1.7-1.941l1.565-2.226C909.637,348.011,909.531,348.377,909.292,348.737Z" transform="translate(-600.144 110.253)" fill="#fff"/>
    <path id="Path_31693" data-name="Path 31693" d="M887.326,466.821a5.347,5.347,0,0,1-3.422-1.441c-1.117-1.341,2.581-.535,2.581-.535l.961.22Z" transform="translate(-582.26 5.155)" fill="#ffb0b1"/>
    <path id="Path_31694" data-name="Path 31694" d="M951.534,384.84a2.921,2.921,0,0,0-.058,1.342,19.105,19.105,0,0,1-5.2-.5,11.694,11.694,0,0,1-1.821,1.141l-.72-8.92c-.46-1.2-.64-7.5-.64-7.5s.041-.33.1-.824a.1.1,0,0,1,.005-.037,38.275,38.275,0,0,1,.71-4.321c.241-.481-.74-1.761-.74-1.761l.446-3.8.054-.459a4.594,4.594,0,0,0,1.661-1.761l.553-.969h0c.6-.386.632,3.4.632,3.4l-.6,8.929,1.992-.55S951.874,383.7,951.534,384.84Z" transform="translate(-635.703 102.484)" opacity="0.1"/>
    <path id="Path_31695" data-name="Path 31695" d="M955.195,364.011c-2.741,1.361-7.723.1-7.723.1a11.691,11.691,0,0,1-1.821,1.141l-.721-8.92c-.459-1.2-.639-7.5-.639-7.5s.579-4.7.82-5.182a.772.772,0,0,0-.047-.573,7.254,7.254,0,0,1-.439-3.357l.192-1.635.053-.458a4.6,4.6,0,0,0,1.662-1.762l.5-.878.922-1.618.437-.766.074.067.566.513.6.5c.785.661,2.141,1.826,2.84,2.539.615.627.81,3.068.866,4.905.037,1.21.015,2.158.015,2.158-.62,1.021,1,9.221,1,9.221C954.734,354.088,955.195,364.011,955.195,364.011Z" transform="translate(-636.783 123.929)" fill="#fff"/>
    <path id="Path_31696" data-name="Path 31696" d="M924.867,363.671s-1.881,3.581-1.663,4.942.84,2.9.54,3.261a1.107,1.107,0,0,1-.881.44,2.9,2.9,0,0,0-1.1.64,10.45,10.45,0,0,0-1.4.341,8.737,8.737,0,0,1-1.641.44,8.526,8.526,0,0,0-2.082.12,2.678,2.678,0,0,0,.02,2.121,3.341,3.341,0,0,0,1.12,1.621c.319.117,2.341-.56,3.982-.721a8.472,8.472,0,0,0,3.422-1.46s1.961-.7,2.305-1.881-.42-7.663-.42-7.663S926.488,362.85,924.867,363.671Z" transform="translate(-611.718 96.1)" opacity="0.03"/>
    <path id="Path_31697" data-name="Path 31697" d="M922.493,360.673s-1.881,3.582-1.661,4.942.84,2.9.539,3.262a1.1,1.1,0,0,1-.88.44,2.9,2.9,0,0,0-1.1.64,10.529,10.529,0,0,0-1.4.34,8.822,8.822,0,0,1-1.641.44,8.514,8.514,0,0,0-2.081.12,2.678,2.678,0,0,0,.02,2.121,3.353,3.353,0,0,0,1.12,1.621c.319.117,2.341-.56,3.982-.72a8.453,8.453,0,0,0,3.422-1.461s1.96-.7,2.3-1.88-.42-7.664-.42-7.664S924.114,359.854,922.493,360.673Z" transform="translate(-609.584 98.796)" opacity="0.03"/>
    <path id="Path_31698" data-name="Path 31698" d="M924.3,361.883s-1.881,3.582-1.661,4.942.84,2.9.54,3.261a1.1,1.1,0,0,1-.881.441,2.909,2.909,0,0,0-1.1.639,10.3,10.3,0,0,0-1.4.341,8.755,8.755,0,0,1-1.641.44,8.524,8.524,0,0,0-2.082.12,2.678,2.678,0,0,0,.02,2.121,3.346,3.346,0,0,0,1.121,1.621c.319.117,2.341-.56,3.982-.721a8.472,8.472,0,0,0,3.422-1.46s1.961-.7,2.305-1.881-.415-7.663-.415-7.663S925.915,361.068,924.3,361.883Z" transform="translate(-611.205 97.707)" fill="#fff"/>
    <path id="Path_31699" data-name="Path 31699" d="M989.8,458.2s-1.5-.3-.98.2.52.94,1.161.92S989.8,458.2,989.8,458.2Z" transform="translate(-676.748 11.001)" opacity="0.1"/>
    <path id="Path_31700" data-name="Path 31700" d="M1023.346,566.58s-.68.46.62,1.52S1023.346,566.58,1023.346,566.58Z" transform="translate(-707.756 -86.6)" opacity="0.1"/>
    <path id="Path_31701" data-name="Path 31701" d="M1011.738,604.31c0,.06-.241,2.2.659,2.741S1011.738,604.31,1011.738,604.31Z" transform="translate(-697.445 -120.549)" opacity="0.1"/>
    <path id="Path_31702" data-name="Path 31702" d="M854.085,436.59c-.726.025-2.293.247-1.48,1.763.719,1.342,1.926.445,2.606-.236a2.56,2.56,0,0,0-1.126-1.527Z" transform="translate(-554.081 30.362)" fill="#ffb0b1"/>
    <path id="Path_31703" data-name="Path 31703" d="M881.39,451Z" transform="translate(-580.187 17.396)" fill="#ffb0b1"/>
    <path id="Path_31704" data-name="Path 31704" d="M880.74,451.431l.03-.031Z" transform="translate(-579.602 17.036)" fill="#ffb0b1"/>
    <path id="Path_31705" data-name="Path 31705" d="M954.357,334.273c-.77.526-1.415.97-1.541,1.062a15.147,15.147,0,0,0-1.426,2.522c-.338.616-1.435.775-1.849.814l.053-.458a4.6,4.6,0,0,0,1.662-1.762l1.86-3.261.64.582Z" transform="translate(-641.507 123.398)" opacity="0.1"/>
    <path id="Path_31706" data-name="Path 31706" d="M954.357,333.673c-.77.526-1.415.97-1.541,1.063a15.089,15.089,0,0,0-1.426,2.521c-.338.616-1.435.775-1.849.814l.053-.458a4.6,4.6,0,0,0,1.662-1.762l1.86-3.261.64.58S954,333.369,954.357,333.673Z" transform="translate(-641.507 123.938)" fill="#dce7ff"/>
    <path id="Path_31707" data-name="Path 31707" d="M929.442,291.235a2.973,2.973,0,1,1-2.527-2.939A2.968,2.968,0,0,1,929.442,291.235Z" transform="translate(-618.073 163.823)" fill="#ffb0b1"/>
    <path id="Path_31708" data-name="Path 31708" d="M936.568,301.232a2.642,2.642,0,0,1-.959-1.03,2.713,2.713,0,0,0-.564-.947,2.506,2.506,0,0,0-.922-.356,2.7,2.7,0,0,1-1.971-2.372,14.05,14.05,0,0,0,.072-1.546,1.712,1.712,0,0,0-.335-.8,2.747,2.747,0,0,0-.29-.312c-.14-.132-.288-.261-.416-.4a1.555,1.555,0,0,1-.21-.286,1.375,1.375,0,0,1-.115-.266c-.2-.613-.018-1.341-.239-1.961l-.012-.034a.638.638,0,0,0-.488-.458c-.236-.017-.437.178-.661.266a1.476,1.476,0,0,1-1.369-.445,1.877,1.877,0,0,0-1.332-.608,4.3,4.3,0,0,0-.894.388,1.254,1.254,0,0,1-.211.061,2.972,2.972,0,0,1,5.73,1.107,2.94,2.94,0,0,1-.065.62c.005.014.01.027.016.041.116.3.247.609.363.876l.566.513.6.5c.785.661,2.141,1.826,2.84,2.539C936.317,296.955,936.509,299.395,936.568,301.232Z" transform="translate(-620.011 163.823)" opacity="0.1"/>
    <path id="Path_31709" data-name="Path 31709" d="M920.025,267.758c.143-.292.214-.618.386-.9a2.132,2.132,0,0,1,1.142-.813c1.178-.406,3.666-1,4.41,0a2.17,2.17,0,0,0,.47.561,3.491,3.491,0,0,0,.51.23,1.95,1.95,0,0,1,.938,1.2c.161.5.209,1.026.328,1.536a11.3,11.3,0,0,0,.682,1.891,5.209,5.209,0,0,0,1.244,2c.821.7,1,1.695,1.764,2.465a3.441,3.441,0,0,1,.408,3.62.994.994,0,0,0-.106.489.959.959,0,0,0,.266.453l.493.556a2.773,2.773,0,0,1-3.03-1.4,2.71,2.71,0,0,0-.565-.947,2.5,2.5,0,0,0-.921-.355,2.707,2.707,0,0,1-1.971-2.374,14.013,14.013,0,0,0,.072-1.543,1.7,1.7,0,0,0-.336-.8c-.276-.36-.692-.6-.916-1-.38-.671-.091-1.541-.365-2.261a.64.64,0,0,0-.488-.458c-.236-.017-.437.178-.662.266a1.473,1.473,0,0,1-1.368-.445,1.869,1.869,0,0,0-1.333-.607,4.193,4.193,0,0,0-.893.388c-.224.086-.68.163-.876-.026C918.89,269.1,919.851,268.115,920.025,267.758Z" transform="translate(-614.209 184.302)" fill="#591d4b"/>
    <path id="Path_31710" data-name="Path 31710" d="M930.013,288.075a2.712,2.712,0,0,0-.565-.946,2.5,2.5,0,0,0-.922-.356,2.707,2.707,0,0,1-1.971-2.373,14.263,14.263,0,0,0,.073-1.544,1.714,1.714,0,0,0-.336-.8c-.277-.36-.693-.6-.916-1-.38-.669-.091-1.54-.366-2.261a.642.642,0,0,0-.487-.458c-.234-.018-.438.179-.662.267a1.475,1.475,0,0,1-1.368-.445,1.878,1.878,0,0,0-1.333-.608,4.272,4.272,0,0,0-.893.388c-.224.086-.68.164-.877-.025-.413-.4.548-1.388.721-1.743a9.6,9.6,0,0,1,.387-.9l.029-.045a1.592,1.592,0,0,0-.33.375,9.738,9.738,0,0,0-.386.9c-.173.355-1.135,1.345-.721,1.743.2.19.651.112.876.026a4.126,4.126,0,0,1,.893-.388,1.867,1.867,0,0,1,1.333.607,1.478,1.478,0,0,0,1.369.445c.224-.087.421-.284.661-.266a.638.638,0,0,1,.488.458c.274.72-.015,1.591.365,2.261.224.394.64.64.916,1a1.7,1.7,0,0,1,.336.8,14.014,14.014,0,0,1-.072,1.543,2.7,2.7,0,0,0,1.971,2.374,2.514,2.514,0,0,1,.921.355,2.651,2.651,0,0,1,.565.947,2.773,2.773,0,0,0,3.03,1.4l-.232-.263A2.8,2.8,0,0,1,930.013,288.075Z" transform="translate(-614.016 175.549)" opacity="0.1"/>
    <path id="Path_31711" data-name="Path 31711" d="M947.661,349.247a20.222,20.222,0,0,0-.821,2.123c-.294-.114-.56-.843-.56-.843l1.566-2.227C948.006,348.52,947.9,348.886,947.661,349.247Z" transform="translate(-638.573 109.803)" opacity="0.1"/>
    <path id="Path_31712" data-name="Path 31712" d="M948.261,348.656a20.211,20.211,0,0,0-.821,2.123c-.294-.113-.56-.843-.56-.843l1.566-2.226C948.606,347.93,948.5,348.3,948.261,348.656Z" transform="translate(-639.113 110.334)" fill="#dce7ff"/>
    <path id="Path_31713" data-name="Path 31713" d="M861.938,431.744l-.868-2.737a.256.256,0,0,1,.166-.322h0a.257.257,0,0,1,.321.166l.868,2.734-.086.572Z" transform="translate(-561.893 37.485)" fill="#be8b87"/>
    <path id="Path_31714" data-name="Path 31714" d="M861.523,428.8h0a.257.257,0,0,1,.322.166l.868,2.734-.065.429.063.066.086-.572-.873-2.734a.257.257,0,0,0-.321-.166h0a.256.256,0,0,0-.133.1A.35.35,0,0,1,861.523,428.8Z" transform="translate(-562.263 37.449)" fill="#fff" opacity="0.1"/>
    <path id="Path_31715" data-name="Path 31715" d="M822.6,399.294l.487-.154-.071.469-.015.1-.142-.148Z" transform="translate(-522.555 69.934)" fill="#efc8c4"/>
    <path id="Path_31716" data-name="Path 31716" d="M872.42,461.7a.1.1,0,0,1,.031-.026.044.044,0,0,1,.047,0,.126.126,0,0,1,.017.027.086.086,0,0,0,.062.041l-.015.1Z" transform="translate(-572.116 7.794)" fill="#727a9c"/>
    <path id="Path_31717" data-name="Path 31717" d="M861.13,441.7s1.741-.01,1.331.731a1.566,1.566,0,0,1-1.05.83Z" transform="translate(-561.958 25.764)" fill="#ffb0b1"/>
    <path id="Path_31718" data-name="Path 31718" d="M547.493,110.05h-.075a8.573,8.573,0,0,0-7.157,3.918,8.573,8.573,0,0,0-7.157-3.918h-.075a8.519,8.519,0,0,0-8.438,8.514,18.339,18.339,0,0,0,3.6,10c4.535,6.2,12.069,11.626,12.069,11.626s7.534-5.424,12.068-11.626a18.331,18.331,0,0,0,3.6-10A8.519,8.519,0,0,0,547.493,110.05Zm-1.075,18.988a1.689,1.689,0,0,1-1.571-1.084h-1.788a.565.565,0,0,1-.532-.385l-.549-1.655-1.738,6.073a.562.562,0,0,1-.539.406h-.035a.555.555,0,0,1-.521-.465l-1.791-10.772-1.309,6.374a.558.558,0,0,1-.542.424h-2.519a.56.56,0,1,1,0-1.12h2.078l1.854-8.57a.562.562,0,0,1,1.1.046l1.829,10.989,1.557-5.433a.551.551,0,0,1,.524-.4h.011a.559.559,0,0,1,.531.385l.993,2.988h1.361a1.68,1.68,0,1,1,1.6,2.2Z" transform="translate(-259.147 324.174)" fill="#225b6e"/>
  </g>
</svg>
