<svg xmlns="http://www.w3.org/2000/svg" width="23.376" height="23.376" viewBox="0 0 23.376 23.376">
  <g id="Group_11272" data-name="Group 11272" transform="translate(-199.494 -699)">
    <path id="Subtraction_75" data-name="Subtraction 75" d="M11.688,23.376A11.688,11.688,0,0,1,3.423,3.423a11.688,11.688,0,1,1,16.53,16.53A11.612,11.612,0,0,1,11.688,23.376Zm0-21.251a9.563,9.563,0,1,0,9.563,9.563A9.574,9.574,0,0,0,11.688,2.125Z" transform="translate(199.494 699)"/>
    <path id="Rectangle_15" data-name="Rectangle 15" d="M2.125,5.313H0V3.188a3.188,3.188,0,0,1,6.375,0V5.313H4.25V3.188a1.063,1.063,0,1,0-2.125,0Z" transform="translate(207.994 703.25)"/>
    <path id="Rectangle_18" data-name="Rectangle 18" d="M2.125,0H8.5a2.125,2.125,0,0,1,2.125,2.125v4.25A2.125,2.125,0,0,1,8.5,8.5H2.125A2.125,2.125,0,0,1,0,6.375V2.125A2.125,2.125,0,0,1,2.125,0Z" transform="translate(205.869 708.563)"/>
  </g>
</svg>
