<svg xmlns="http://www.w3.org/2000/svg" width="20.451" height="20" viewBox="0 0 20.451 20">
  <path id="ic_notifications_active_24px" d="M7.722,4.121,6.256,2.654A10.692,10.692,0,0,0,2.03,10.705H4.081A8.662,8.662,0,0,1,7.722,4.121ZM20.43,10.705h2.051a10.758,10.758,0,0,0-4.226-8.051L16.8,4.121A8.713,8.713,0,0,1,20.43,10.705Zm-2.021.513c0-3.149-1.682-5.785-4.615-6.482v-.7a1.538,1.538,0,1,0-3.077,0v.7C7.774,5.433,6.1,8.059,6.1,11.218v5.128L4.051,18.4v1.026h16.41V18.4l-2.051-2.051ZM12.256,22.5a1.8,1.8,0,0,0,.41-.041,2.081,2.081,0,0,0,1.477-1.21,2.059,2.059,0,0,0,.154-.8h-4.1A2.066,2.066,0,0,0,12.256,22.5Z" transform="translate(-2.03 -2.5)"/>
</svg>
