<svg id="Group_61" data-name="Group 61" xmlns="http://www.w3.org/2000/svg" width="12.252" height="12.281" viewBox="0 0 12.252 12.281">
  <g id="noun_Pencil_2174975" transform="translate(0 0)">
    <g id="Layer_2" data-name="Layer 2" transform="translate(0 0)">
      <g id="Layer_1" data-name="Layer 1" transform="translate(0 0)">
        <rect id="Rectangle_78" data-name="Rectangle 78" width="12" height="12" transform="translate(0.167 0.097)" fill="none"/>
        <path id="Path_398" data-name="Path 398" d="M17.191,10.525,14.15,7.488,21.11.526a1.809,1.809,0,0,1,2.558,0l.481.481a1.811,1.811,0,0,1,0,2.558ZM15.474,7.488l1.719,1.719,6.295-6.3a.872.872,0,0,0,0-1.234l-.481-.483a.876.876,0,0,0-1.235,0Z" transform="translate(-12.426 0.004)"/>
        <path id="Path_399" data-name="Path 399" d="M.691,71.208a.578.578,0,0,1-.56-.727l.756-2.845a.614.614,0,0,1,1.029-.278L3.961,69.4a.614.614,0,0,1-.276,1.029l-2.85.756A.553.553,0,0,1,.691,71.208Zm.958-2.794-.456,1.712,1.719-.456Z" transform="translate(-0.112 -58.928)"/>
        <path id="Path_400" data-name="Path 400" d="M65.344,14.832a.463.463,0,0,1-.33-.138l-2.153-2.151a.468.468,0,1,1,.662-.662l2.151,2.153a.468.468,0,0,1-.33.8Z" transform="translate(-55.035 -10.301)"/>
      </g>
    </g>
  </g>
</svg>
