<svg xmlns="http://www.w3.org/2000/svg" width="103.001" height="94.746" viewBox="0 0 103.001 94.746">
  <g id="Group_20" data-name="Group 20" transform="translate(-1062 -1025.786)">
    <path id="Path_178" data-name="Path 178" d="M507.165,401.174a.41.41,0,0,0-.169.555l20.47,38.34a.41.41,0,0,0,.555.169l28.936-15.449a.411.411,0,0,0,.169-.555l-20.47-38.34a.411.411,0,0,0-.555-.169Z" transform="translate(580.224 661.75)" fill="#225b6e"/>
    <path id="Path_179" data-name="Path 179" d="M514.942,413.855l18.732,35.084,25.68-13.71-18.732-35.085Zm-1.627.869,0,0,0,0Z" transform="translate(575.137 650.189)" fill="#f4f2f2"/>
    <path id="Path_180" data-name="Path 180" d="M552.194,447.362a1.017,1.017,0,0,0-.19,1.386c.294.551.858.826,1.257.613L572.07,439.32a1.017,1.017,0,0,0,.19-1.386c-.294-.551-.858-.826-1.257-.613Z" transform="translate(544.36 620.54)" fill="#3aa1a2"/>
    <path id="Path_181" data-name="Path 181" d="M563.729,468.966a1.017,1.017,0,0,0-.19,1.386c.294.551.858.826,1.257.613L583.6,460.924a1.017,1.017,0,0,0,.19-1.386c-.294-.551-.858-.827-1.257-.613Z" transform="translate(535.142 603.276)" fill="#3aa1a2"/>
    <path id="Path_182" data-name="Path 182" d="M575.263,490.571a1.017,1.017,0,0,0-.19,1.386c.294.551.858.826,1.257.613l18.808-10.042a1.017,1.017,0,0,0,.19-1.386c-.294-.551-.858-.826-1.257-.613Z" transform="translate(525.925 586.011)" fill="#3aa1a2"/>
    <path id="Path_183" data-name="Path 183" d="M586.8,512.175a1.017,1.017,0,0,0-.19,1.386c.294.551.858.826,1.257.613l18.808-10.042a1.017,1.017,0,0,0,.19-1.386c-.294-.551-.858-.826-1.257-.613Z" transform="translate(516.708 568.747)" fill="#3aa1a2"/>
    <path id="Path_184" data-name="Path 184" d="M598.332,533.78a1.017,1.017,0,0,0-.19,1.386c.294.551.858.826,1.257.613l18.808-10.042a1.017,1.017,0,0,0,.19-1.386c-.294-.551-.858-.826-1.257-.613Z" transform="translate(507.491 551.483)" fill="#3aa1a2"/>
    <path id="Path_185" data-name="Path 185" d="M397.312,207.155l17.042,1.041,4.773-14.233L404.179,190.8Z" transform="translate(712.163 839.205)" fill="#2f2e41"/>
    <circle id="Ellipse_29" data-name="Ellipse 29" cx="6.816" cy="6.816" r="6.816" transform="translate(1114.95 1029.129)" fill="#ffb8b8"/>
    <path id="Path_186" data-name="Path 186" d="M458.076,246.947l-11.049,1.808L444.113,237.2l7.735-.7Z" transform="translate(674.765 802.689)" fill="#ffb8b8"/>
    <path id="Path_187" data-name="Path 187" d="M642.54,546.768l.044.53a54.8,54.8,0,0,1-26.714,2.262l-.058.942a3.224,3.224,0,0,1-4.378,2.8l1.9-4.221,2.409-5.342,1.579-3.5-.569-12.114-.06-1.254-.074-1.6,1.029-.006,7.313-.044,6.969-.044,1.063-.006C639.661,533.368,645.16,540.03,642.54,546.768Z" transform="translate(496.729 550.28)" fill="#2f2e41"/>
    <path id="Path_188" data-name="Path 188" d="M647.656,399.973l-16.273,1.808-.6-11.25c-1.91-4.871-.649-9.218,3.314-13.119l.806-3.189a4.722,4.722,0,0,1,3.488-3.438h0a16.813,16.813,0,0,1,9.067-2.151h0a6.765,6.765,0,0,1,4.284,6.828A125.34,125.34,0,0,1,647.656,399.973Z" transform="translate(481.97 675.378)" fill="#225b6e"/>
    <path id="Path_189" data-name="Path 189" d="M620.093,429.872l-.131.986-2.079,15.688-1.1,2.361-.36.771-8.384,17.963-.352,5.605-.058.942a3.22,3.22,0,1,1-6.174-1.463l.335-.79,1.828-4.3,4.956-15.831.408-1.306.486-1.553,1.382-4.414,2.2-13.573.209-1.294Z" transform="translate(504.912 626.594)" fill="#ffb8b8"/>
    <path id="Path_190" data-name="Path 190" d="M665.305,389.713a11.841,11.841,0,0,0-9.04,0l.932-8.075a3.851,3.851,0,0,1,3.647-3.977h0a3.851,3.851,0,0,1,4.049,3.657Z" transform="translate(460.905 668.16)" fill="#3aa1a2"/>
    <path id="Path_191" data-name="Path 191" d="M625.051,280.063a6.225,6.225,0,0,0-3.615,5.962,8.436,8.436,0,0,0,.312,2.328,6.628,6.628,0,0,1-1.125,5.21,48.163,48.163,0,0,0-2.719,5.005h0l3.968.383.656-6.578a32.65,32.65,0,0,1,2.333-9.275l.026-.062s1.821,3.164,5.281,3.067l-1.271-1.2a43.648,43.648,0,0,0,6.69,1.96,1.492,1.492,0,0,1,.9,2.482l-.042.046c-1.441,1.525-4.309,5.068-2.5,7.738s.345,3.453.345,3.453l2.677-1.559,1.215-.776.028.989,6.405-.922s1.723-.3-2.1-4.393a4.406,4.406,0,0,1-.636-3.023,7.1,7.1,0,0,0,.176-3.327C641.088,282.957,637.57,273.837,625.051,280.063Z" transform="translate(491.559 747.829)" fill="#2f2e41"/>
    <path id="Path_192" data-name="Path 192" d="M220.8,414.219a.2.2,0,0,0-.142.246l5.483,20.578a.2.2,0,0,0,.246.142l15.53-4.138a.2.2,0,0,0,.142-.246l-5.483-20.578a.2.2,0,0,0-.246-.142Z" transform="translate(841.348 642.254)" fill="#f4f2f2"/>
    <path id="Path_193" data-name="Path 193" d="M239.312,436.882a.5.5,0,0,0-.245.64c.079.3.317.49.531.433l10.095-2.69a.5.5,0,0,0,.245-.64c-.079-.3-.317-.49-.531-.433Z" transform="translate(826.653 622.989)" fill="#225b6e"/>
    <path id="Path_194" data-name="Path 194" d="M242.4,448.478a.5.5,0,0,0-.245.64c.079.3.317.49.531.433l10.095-2.69a.5.5,0,0,0,.245-.64c-.079-.3-.317-.49-.531-.433Z" transform="translate(824.184 613.723)" fill="#225b6e"/>
    <path id="Path_195" data-name="Path 195" d="M245.491,460.073a.5.5,0,0,0-.245.64c.079.3.317.49.531.433l10.095-2.69a.5.5,0,0,0,.245-.64c-.079-.3-.317-.49-.531-.433Z" transform="translate(821.715 604.457)" fill="#225b6e"/>
    <path id="Path_196" data-name="Path 196" d="M248.581,471.669a.5.5,0,0,0-.245.64c.079.3.317.49.531.433l10.095-2.69a.5.5,0,0,0,.245-.64c-.079-.3-.317-.49-.531-.433Z" transform="translate(819.247 595.191)" fill="#225b6e"/>
    <path id="Path_197" data-name="Path 197" d="M251.67,483.264a.5.5,0,0,0-.245.64c.079.3.317.49.531.433l10.095-2.69a.5.5,0,0,0,.245-.64c-.079-.3-.317-.49-.531-.433Z" transform="translate(816.778 585.925)" fill="#225b6e"/>
    <path id="Path_198" data-name="Path 198" d="M254.76,494.86a.5.5,0,0,0-.245.64c.079.3.317.49.531.433l10.095-2.69a.5.5,0,0,0,.245-.64c-.079-.3-.317-.49-.531-.433Z" transform="translate(814.309 576.659)" fill="#225b6e"/>
    <path id="Path_214" data-name="Path 214" d="M865.685,595.635a.2.2,0,0,0-.275.071L854.576,614.04a.2.2,0,0,0,.071.275l13.837,8.177a.2.2,0,0,0,.275-.071l10.834-18.334a.2.2,0,0,0-.071-.275Z" transform="translate(285.38 498.013)" fill="#e6e6e6"/>
    <path id="Path_215" data-name="Path 215" d="M871.626,600.941l-9.914,16.777,12.28,7.257,9.914-16.777Zm-.778-.46h0Z" transform="translate(279.656 494.118)" fill="#f4f2f2"/>
    <path id="Path_216" data-name="Path 216" d="M908.334,620.985a.585.585,0,0,0-.565.956l8.994,5.315a.585.585,0,0,0,.565-.956Z" transform="translate(242.983 477.767)" fill="#225b6e"/>
    <path id="Path_217" data-name="Path 217" d="M902.229,631.316a.585.585,0,0,0-.565.956l8.994,5.315a.585.585,0,0,0,.565-.956Z" transform="translate(247.861 469.512)" fill="#225b6e"/>
    <path id="Path_218" data-name="Path 218" d="M896.124,641.647a.585.585,0,0,0-.565.956l8.994,5.315a.585.585,0,0,0,.565-.956Z" transform="translate(252.74 461.256)" fill="#225b6e"/>
    <path id="Path_219" data-name="Path 219" d="M890.019,651.977a.585.585,0,0,0-.565.956l8.994,5.315a.585.585,0,0,0,.565-.956Z" transform="translate(257.618 453.001)" fill="#225b6e"/>
    <path id="Path_220" data-name="Path 220" d="M883.914,662.308a.585.585,0,0,0-.565.956l8.994,5.315a.585.585,0,0,0,.565-.956Z" transform="translate(262.497 444.745)" fill="#225b6e"/>
    <path id="Path_221" data-name="Path 221" d="M877.809,672.639a.585.585,0,0,0-.565.956l8.994,5.315a.585.585,0,0,0,.565-.956Z" transform="translate(267.375 436.49)" fill="#225b6e"/>
  </g>
</svg>
